<mxfile host="app.diagrams.net" modified="2024-05-23T14:01:37.538Z" agent="Mozilla/5.0 (Windows NT 10.0; Win64; x64) AppleWebKit/537.36 (KHTML, like Gecko) Chrome/124.0.0.0 Safari/537.36" etag="9gvm0TdRLiSrzXGo6v8L" version="24.4.4" type="github" pages="4">
  <diagram id="PLj10XZm50xevkK5dDC4" name="Схема общих зависимостей аналитических блоков">
    <mxGraphModel dx="2473" dy="1138" grid="1" gridSize="10" guides="1" tooltips="1" connect="1" arrows="1" fold="1" page="0" pageScale="1" pageWidth="827" pageHeight="1169" math="0" shadow="0">
      <root>
        <mxCell id="0" />
        <mxCell id="1" parent="0" />
        <mxCell id="XQE93nrc82hxhaSd3OuE-1" value="&lt;font style=&quot;font-size: 14px;&quot;&gt;Зависимости миграции аналитических блоков&lt;/font&gt;" style="swimlane;html=1;childLayout=stackLayout;horizontal=1;startSize=20;horizontalStack=0;rounded=0;shadow=0;labelBackgroundColor=none;strokeWidth=1;fontFamily=Verdana;fontSize=8;align=center;" vertex="1" parent="1">
          <mxGeometry x="-450" y="-30" width="1430" height="650" as="geometry">
            <mxRectangle x="-450" y="-30" width="60" height="20" as="alternateBounds" />
          </mxGeometry>
        </mxCell>
        <mxCell id="XQE93nrc82hxhaSd3OuE-2" value="Уровень 1" style="swimlane;html=1;startSize=20;horizontal=0;" vertex="1" parent="XQE93nrc82hxhaSd3OuE-1">
          <mxGeometry y="20" width="1430" height="120" as="geometry" />
        </mxCell>
        <object label="&lt;b&gt;&lt;font style=&quot;font-size: 14px;&quot;&gt;Ядро хранилища&lt;/font&gt;&lt;/b&gt;" tags="Аналитический блок уровень 1" id="Oqv5y6zYF6AIueJO42CS-1">
          <mxCell style="rounded=0;whiteSpace=wrap;html=1;strokeColor=default;" vertex="1" parent="XQE93nrc82hxhaSd3OuE-2">
            <mxGeometry x="180" y="30" width="120" height="60" as="geometry" />
          </mxCell>
        </object>
        <object label="&lt;span style=&quot;font-size: 14px;&quot;&gt;&lt;b&gt;СЭД&lt;/b&gt;&lt;/span&gt;" tags="Аналитический блок уровень 1" id="Oqv5y6zYF6AIueJO42CS-2">
          <mxCell style="rounded=0;whiteSpace=wrap;html=1;strokeColor=default;" vertex="1" parent="XQE93nrc82hxhaSd3OuE-2">
            <mxGeometry x="540" y="30" width="120" height="60" as="geometry" />
          </mxCell>
        </object>
        <object label="&lt;span id=&quot;docs-internal-guid-bf06645c-7fff-cebf-d89b-db13d9a40a01&quot;&gt;&lt;span style=&quot;font-family: Arial, sans-serif; background-color: transparent; font-weight: 700; font-variant-numeric: normal; font-variant-east-asian: normal; font-variant-alternates: normal; font-variant-position: normal; vertical-align: baseline; white-space-collapse: preserve;&quot;&gt;&lt;font style=&quot;font-size: 11px;&quot;&gt;Администрирование&lt;/font&gt;&lt;/span&gt;&lt;/span&gt;" tags="Аналитический блок уровень 1" id="Oqv5y6zYF6AIueJO42CS-3">
          <mxCell style="rounded=0;whiteSpace=wrap;html=1;strokeColor=default;" vertex="1" parent="XQE93nrc82hxhaSd3OuE-2">
            <mxGeometry x="690" y="30" width="120" height="60" as="geometry" />
          </mxCell>
        </object>
        <mxCell id="_Ikj2ntpnJ4bUoJ_dx_f-1" value="&lt;b&gt;ФВД&lt;/b&gt;" style="shape=trapezoid;perimeter=trapezoidPerimeter;whiteSpace=wrap;html=1;fixedSize=1;" vertex="1" parent="XQE93nrc82hxhaSd3OuE-2">
          <mxGeometry x="1070" y="30" width="120" height="60" as="geometry" />
        </mxCell>
        <mxCell id="XQE93nrc82hxhaSd3OuE-14" value="Уровень 2" style="swimlane;html=1;startSize=20;horizontal=0;" vertex="1" parent="XQE93nrc82hxhaSd3OuE-1">
          <mxGeometry y="140" width="1430" height="150" as="geometry">
            <mxRectangle y="140" width="1430" height="30" as="alternateBounds" />
          </mxGeometry>
        </mxCell>
        <object label="&lt;span id=&quot;docs-internal-guid-7d615c99-7fff-7a86-46f8-0a8af28e0f3e&quot;&gt;&lt;span style=&quot;font-family: Arial, sans-serif; background-color: transparent; font-weight: 700; font-variant-numeric: normal; font-variant-east-asian: normal; font-variant-alternates: normal; font-variant-position: normal; vertical-align: baseline; white-space-collapse: preserve;&quot;&gt;&lt;font style=&quot;font-size: 12px;&quot;&gt;Атлас&lt;/font&gt;&lt;/span&gt;&lt;/span&gt;" tags="Аналитический блок уровень 1" id="7GIYqwvQETOPN8OB6-7z-1">
          <mxCell style="rounded=0;whiteSpace=wrap;html=1;strokeColor=default;" vertex="1" parent="XQE93nrc82hxhaSd3OuE-14">
            <mxGeometry x="350" y="45" width="120" height="60" as="geometry" />
          </mxCell>
        </object>
        <object label="&lt;span id=&quot;docs-internal-guid-e3d2a9b0-7fff-398d-6504-273b39e3f501&quot;&gt;&lt;span style=&quot;font-family: Arial, sans-serif; background-color: transparent; font-weight: 700; font-variant-numeric: normal; font-variant-east-asian: normal; font-variant-alternates: normal; font-variant-position: normal; vertical-align: baseline; white-space-collapse: preserve;&quot;&gt;&lt;font style=&quot;font-size: 12px;&quot;&gt;Отклонения&lt;/font&gt;&lt;/span&gt;&lt;/span&gt;" tags="Аналитический блок уровень 1" id="7GIYqwvQETOPN8OB6-7z-2">
          <mxCell style="rounded=0;whiteSpace=wrap;html=1;strokeColor=default;" vertex="1" parent="XQE93nrc82hxhaSd3OuE-14">
            <mxGeometry x="480" y="45" width="120" height="60" as="geometry" />
          </mxCell>
        </object>
        <object label="&lt;span id=&quot;docs-internal-guid-870f3a8c-7fff-78d6-4519-5aa0fbe8bb6a&quot;&gt;&lt;span style=&quot;font-family: Arial, sans-serif; background-color: transparent; font-weight: 700; font-variant-numeric: normal; font-variant-east-asian: normal; font-variant-alternates: normal; font-variant-position: normal; vertical-align: baseline; white-space-collapse: preserve;&quot;&gt;&lt;font style=&quot;font-size: 12px;&quot;&gt;Мониторинг лаб. исследований&lt;/font&gt;&lt;/span&gt;&lt;/span&gt;" tags="Аналитический блок уровень 1" id="7GIYqwvQETOPN8OB6-7z-3">
          <mxCell style="rounded=0;whiteSpace=wrap;html=1;strokeColor=default;" vertex="1" parent="XQE93nrc82hxhaSd3OuE-14">
            <mxGeometry x="610" y="45" width="120" height="60" as="geometry" />
          </mxCell>
        </object>
        <object label="&lt;span id=&quot;docs-internal-guid-a794fde9-7fff-b875-dd36-8d0dae9d6180&quot;&gt;&lt;span style=&quot;font-family: Arial, sans-serif; background-color: transparent; font-weight: 700; font-variant-numeric: normal; font-variant-east-asian: normal; font-variant-alternates: normal; font-variant-position: normal; vertical-align: baseline; white-space-collapse: preserve;&quot;&gt;&lt;font style=&quot;font-size: 12px;&quot;&gt;Коллаборативная фильтрация&lt;/font&gt;&lt;/span&gt;&lt;/span&gt;" tags="Аналитический блок уровень 1" id="7GIYqwvQETOPN8OB6-7z-4">
          <mxCell style="rounded=0;whiteSpace=wrap;html=1;strokeColor=default;" vertex="1" parent="XQE93nrc82hxhaSd3OuE-14">
            <mxGeometry x="740" y="45" width="120" height="60" as="geometry" />
          </mxCell>
        </object>
        <object label="&lt;span id=&quot;docs-internal-guid-ccdc4bc6-7fff-174e-871c-110859e2be0b&quot;&gt;&lt;span style=&quot;font-size: 11pt; font-family: Arial, sans-serif; background-color: transparent; font-weight: 700; font-variant-numeric: normal; font-variant-east-asian: normal; font-variant-alternates: normal; font-variant-position: normal; vertical-align: baseline; white-space-collapse: preserve;&quot;&gt;&amp;nbsp;&lt;/span&gt;&lt;span style=&quot;font-family: Arial, sans-serif; background-color: transparent; font-weight: 700; font-variant-numeric: normal; font-variant-east-asian: normal; font-variant-alternates: normal; font-variant-position: normal; vertical-align: baseline; white-space-collapse: preserve;&quot;&gt;&lt;font style=&quot;font-size: 12px;&quot;&gt;Анализ балансов&lt;/font&gt;&lt;/span&gt;&lt;/span&gt;" tags="Аналитический блок уровень 1" id="KAoRsXXFV9i1zxV4gdI_-1">
          <mxCell style="rounded=0;whiteSpace=wrap;html=1;strokeColor=default;" vertex="1" parent="XQE93nrc82hxhaSd3OuE-14">
            <mxGeometry x="870" y="45" width="120" height="60" as="geometry" />
          </mxCell>
        </object>
        <mxCell id="XQE93nrc82hxhaSd3OuE-18" value="Уровень 3" style="swimlane;html=1;startSize=20;horizontal=0;" vertex="1" parent="XQE93nrc82hxhaSd3OuE-1">
          <mxGeometry y="290" width="1430" height="180" as="geometry">
            <mxRectangle y="170" width="1430" height="30" as="alternateBounds" />
          </mxGeometry>
        </mxCell>
        <object label="&lt;span id=&quot;docs-internal-guid-3f73617e-7fff-ddcd-596a-60cb205efae5&quot;&gt;&lt;font style=&quot;font-size: 11px;&quot;&gt;&lt;span style=&quot;font-family: Arial, sans-serif; background-color: transparent; font-weight: 700; font-variant-numeric: normal; font-variant-east-asian: normal; font-variant-alternates: normal; font-variant-position: normal; vertical-align: baseline; white-space-collapse: preserve;&quot;&gt;Прослеживаемость&lt;/span&gt;&lt;span style=&quot;font-family: Arial, sans-serif; background-color: transparent; font-variant-numeric: normal; font-variant-east-asian: normal; font-variant-alternates: normal; font-variant-position: normal; vertical-align: baseline; white-space-collapse: preserve;&quot;&gt; &lt;/span&gt;&lt;/font&gt;&lt;/span&gt;" tags="Аналитический блок уровень 1" id="j7793P6GSeIkIbU1f-ir-1">
          <mxCell style="rounded=0;whiteSpace=wrap;html=1;strokeColor=default;" vertex="1" parent="XQE93nrc82hxhaSd3OuE-18">
            <mxGeometry x="380" y="60" width="120" height="60" as="geometry" />
          </mxCell>
        </object>
        <object label="&lt;span id=&quot;docs-internal-guid-920ab262-7fff-461d-46df-536565dd88c2&quot;&gt;&lt;span style=&quot;font-family: Arial, sans-serif; background-color: transparent; font-weight: 700; font-variant-numeric: normal; font-variant-east-asian: normal; font-variant-alternates: normal; font-variant-position: normal; vertical-align: baseline; white-space-collapse: preserve;&quot;&gt;&lt;font style=&quot;font-size: 12px;&quot;&gt;Рейтинги и х-ки объектов&lt;/font&gt;&lt;/span&gt;&lt;/span&gt;" tags="Аналитический блок уровень 1" id="j7793P6GSeIkIbU1f-ir-2">
          <mxCell style="rounded=0;whiteSpace=wrap;html=1;strokeColor=default;" vertex="1" parent="XQE93nrc82hxhaSd3OuE-18">
            <mxGeometry x="520" y="60" width="120" height="60" as="geometry" />
          </mxCell>
        </object>
        <object label="&lt;span id=&quot;docs-internal-guid-e4dde303-7fff-07b4-d732-defd84a26daf&quot;&gt;&lt;span style=&quot;font-family: Arial, sans-serif; background-color: transparent; font-weight: 700; font-variant-numeric: normal; font-variant-east-asian: normal; font-variant-alternates: normal; font-variant-position: normal; vertical-align: baseline; white-space-collapse: preserve;&quot;&gt;&lt;font style=&quot;font-size: 12px;&quot;&gt;Дополнительные отчеты&lt;/font&gt;&lt;/span&gt;&lt;/span&gt;" tags="Аналитический блок уровень 1" id="j7793P6GSeIkIbU1f-ir-3">
          <mxCell style="rounded=0;whiteSpace=wrap;html=1;strokeColor=default;" vertex="1" parent="XQE93nrc82hxhaSd3OuE-18">
            <mxGeometry x="660" y="60" width="120" height="60" as="geometry" />
          </mxCell>
        </object>
        <object label="&lt;span id=&quot;docs-internal-guid-7d615c99-7fff-7a86-46f8-0a8af28e0f3e&quot;&gt;&lt;span style=&quot;font-family: Arial, sans-serif; background-color: transparent; font-weight: 700; font-variant-numeric: normal; font-variant-east-asian: normal; font-variant-alternates: normal; font-variant-position: normal; vertical-align: baseline; white-space-collapse: preserve;&quot;&gt;&lt;font style=&quot;font-size: 12px;&quot;&gt;ИИ АРМ&lt;/font&gt;&lt;/span&gt;&lt;/span&gt;" tags="Аналитический блок уровень 1" id="j7793P6GSeIkIbU1f-ir-4">
          <mxCell style="rounded=0;whiteSpace=wrap;html=1;strokeColor=default;" vertex="1" parent="XQE93nrc82hxhaSd3OuE-18">
            <mxGeometry x="250" y="60" width="120" height="60" as="geometry" />
          </mxCell>
        </object>
        <object label="&lt;span id=&quot;docs-internal-guid-900b498e-7fff-182f-1e8f-28ba7d5d7925&quot;&gt;&lt;span style=&quot;font-family: Arial, sans-serif; background-color: transparent; font-variant-numeric: normal; font-variant-east-asian: normal; font-variant-alternates: normal; font-variant-position: normal; vertical-align: baseline; white-space-collapse: preserve;&quot;&gt;&lt;b style=&quot;&quot;&gt;&lt;font style=&quot;font-size: 12px;&quot;&gt;Экспорт АПК&lt;/font&gt;&lt;/b&gt;&lt;/span&gt;&lt;/span&gt;" tags="Аналитический блок уровень 1" id="j7793P6GSeIkIbU1f-ir-5">
          <mxCell style="rounded=0;whiteSpace=wrap;html=1;strokeColor=default;" vertex="1" parent="XQE93nrc82hxhaSd3OuE-18">
            <mxGeometry x="820" y="60" width="120" height="60" as="geometry" />
          </mxCell>
        </object>
        <object label="&lt;span id=&quot;docs-internal-guid-07c19abc-7fff-28f6-91e5-339aef86b822&quot;&gt;&lt;span style=&quot;font-family: Arial, sans-serif; background-color: transparent; font-weight: 700; font-variant-numeric: normal; font-variant-east-asian: normal; font-variant-alternates: normal; font-variant-position: normal; vertical-align: baseline; white-space-collapse: preserve;&quot;&gt;&lt;font style=&quot;font-size: 12px;&quot;&gt;Внешняя ветеринария&lt;/font&gt;&lt;/span&gt;&lt;/span&gt;" tags="Аналитический блок уровень 1" id="j7793P6GSeIkIbU1f-ir-6">
          <mxCell style="rounded=0;whiteSpace=wrap;html=1;strokeColor=default;" vertex="1" parent="XQE93nrc82hxhaSd3OuE-18">
            <mxGeometry x="990" y="60" width="120" height="60" as="geometry" />
          </mxCell>
        </object>
        <mxCell id="xa_7GqwEiLZP8VhZTELA-1" value="К 6, 7, 13, 14, 26" style="edgeLabel;html=1;align=center;verticalAlign=middle;resizable=0;points=[];" vertex="1" connectable="0" parent="XQE93nrc82hxhaSd3OuE-18">
          <mxGeometry x="580" y="140" as="geometry" />
        </mxCell>
        <mxCell id="fAPPQFwmoCwtC2WPVo9E-1" value="К 30" style="edgeLabel;html=1;align=center;verticalAlign=middle;resizable=0;points=[];" vertex="1" connectable="0" parent="XQE93nrc82hxhaSd3OuE-18">
          <mxGeometry x="430" y="140" as="geometry" />
        </mxCell>
        <mxCell id="7GIYqwvQETOPN8OB6-7z-9" value="Уровень 4" style="swimlane;html=1;startSize=20;horizontal=0;" vertex="1" parent="XQE93nrc82hxhaSd3OuE-1">
          <mxGeometry y="470" width="1430" height="180" as="geometry">
            <mxRectangle y="200" width="1430" height="30" as="alternateBounds" />
          </mxGeometry>
        </mxCell>
        <object label="&lt;span id=&quot;docs-internal-guid-7d615c99-7fff-7a86-46f8-0a8af28e0f3e&quot;&gt;&lt;span style=&quot;font-family: Arial, sans-serif; background-color: transparent; font-weight: 700; font-variant-numeric: normal; font-variant-east-asian: normal; font-variant-alternates: normal; font-variant-position: normal; vertical-align: baseline; white-space-collapse: preserve;&quot;&gt;&lt;font style=&quot;font-size: 12px;&quot;&gt;ИИ Общие отчеты&lt;/font&gt;&lt;/span&gt;&lt;/span&gt;" tags="Аналитический блок уровень 1" id="02QyIaqTU8ALcR3R7Jes-1">
          <mxCell style="rounded=0;whiteSpace=wrap;html=1;strokeColor=default;" vertex="1" parent="7GIYqwvQETOPN8OB6-7z-9">
            <mxGeometry x="730" y="60" width="120" height="60" as="geometry" />
          </mxCell>
        </object>
        <object label="&lt;span id=&quot;docs-internal-guid-7d615c99-7fff-7a86-46f8-0a8af28e0f3e&quot;&gt;&lt;span style=&quot;font-family: Arial, sans-serif; background-color: transparent; font-weight: 700; font-variant-numeric: normal; font-variant-east-asian: normal; font-variant-alternates: normal; font-variant-position: normal; vertical-align: baseline; white-space-collapse: preserve;&quot;&gt;&lt;font style=&quot;font-size: 12px;&quot;&gt;ИИ детальные отчеты&lt;/font&gt;&lt;/span&gt;&lt;/span&gt;" tags="Аналитический блок уровень 1" id="02QyIaqTU8ALcR3R7Jes-2">
          <mxCell style="rounded=0;whiteSpace=wrap;html=1;strokeColor=default;" vertex="1" parent="7GIYqwvQETOPN8OB6-7z-9">
            <mxGeometry x="390" y="60" width="120" height="60" as="geometry" />
          </mxCell>
        </object>
        <object label="&lt;span id=&quot;docs-internal-guid-7d615c99-7fff-7a86-46f8-0a8af28e0f3e&quot;&gt;&lt;span style=&quot;font-family: Arial, sans-serif; background-color: transparent; font-weight: 700; font-variant-numeric: normal; font-variant-east-asian: normal; font-variant-alternates: normal; font-variant-position: normal; vertical-align: baseline; white-space-collapse: preserve;&quot;&gt;&lt;font style=&quot;font-size: 12px;&quot;&gt;ИИ KPI&lt;/font&gt;&lt;/span&gt;&lt;/span&gt;" tags="Аналитический блок уровень 1" id="02QyIaqTU8ALcR3R7Jes-3">
          <mxCell style="rounded=0;whiteSpace=wrap;html=1;strokeColor=default;" vertex="1" parent="7GIYqwvQETOPN8OB6-7z-9">
            <mxGeometry x="570" y="60" width="120" height="60" as="geometry" />
          </mxCell>
        </object>
        <mxCell id="02QyIaqTU8ALcR3R7Jes-20" style="edgeStyle=elbowEdgeStyle;rounded=0;orthogonalLoop=1;jettySize=auto;elbow=vertical;html=1;exitX=0.5;exitY=1;exitDx=0;exitDy=0;strokeColor=#FF0000;" edge="1" parent="XQE93nrc82hxhaSd3OuE-1" source="Oqv5y6zYF6AIueJO42CS-1" target="7GIYqwvQETOPN8OB6-7z-1">
          <mxGeometry relative="1" as="geometry" />
        </mxCell>
        <mxCell id="02QyIaqTU8ALcR3R7Jes-21" style="edgeStyle=elbowEdgeStyle;rounded=0;orthogonalLoop=1;jettySize=auto;elbow=vertical;html=1;exitX=0.5;exitY=1;exitDx=0;exitDy=0;entryX=0.5;entryY=0;entryDx=0;entryDy=0;strokeColor=#FF0000;" edge="1" parent="XQE93nrc82hxhaSd3OuE-1" source="Oqv5y6zYF6AIueJO42CS-1" target="7GIYqwvQETOPN8OB6-7z-2">
          <mxGeometry relative="1" as="geometry" />
        </mxCell>
        <mxCell id="02QyIaqTU8ALcR3R7Jes-22" style="edgeStyle=elbowEdgeStyle;rounded=0;orthogonalLoop=1;jettySize=auto;elbow=vertical;html=1;exitX=0.5;exitY=1;exitDx=0;exitDy=0;strokeColor=#FF0000;" edge="1" parent="XQE93nrc82hxhaSd3OuE-1" source="Oqv5y6zYF6AIueJO42CS-1" target="7GIYqwvQETOPN8OB6-7z-3">
          <mxGeometry relative="1" as="geometry" />
        </mxCell>
        <mxCell id="02QyIaqTU8ALcR3R7Jes-23" style="edgeStyle=elbowEdgeStyle;rounded=0;orthogonalLoop=1;jettySize=auto;elbow=vertical;html=1;exitX=0.5;exitY=1;exitDx=0;exitDy=0;strokeColor=#FF0000;" edge="1" parent="XQE93nrc82hxhaSd3OuE-1" source="Oqv5y6zYF6AIueJO42CS-1" target="7GIYqwvQETOPN8OB6-7z-4">
          <mxGeometry relative="1" as="geometry" />
        </mxCell>
        <mxCell id="02QyIaqTU8ALcR3R7Jes-24" style="edgeStyle=elbowEdgeStyle;rounded=0;orthogonalLoop=1;jettySize=auto;elbow=vertical;html=1;exitX=0.5;exitY=1;exitDx=0;exitDy=0;strokeColor=#FF0000;" edge="1" parent="XQE93nrc82hxhaSd3OuE-1" source="Oqv5y6zYF6AIueJO42CS-1" target="KAoRsXXFV9i1zxV4gdI_-1">
          <mxGeometry relative="1" as="geometry" />
        </mxCell>
        <mxCell id="02QyIaqTU8ALcR3R7Jes-26" style="edgeStyle=elbowEdgeStyle;rounded=0;orthogonalLoop=1;jettySize=auto;elbow=vertical;html=1;exitX=0.5;exitY=1;exitDx=0;exitDy=0;strokeColor=#FF0000;" edge="1" parent="XQE93nrc82hxhaSd3OuE-1" source="Oqv5y6zYF6AIueJO42CS-1" target="j7793P6GSeIkIbU1f-ir-1">
          <mxGeometry relative="1" as="geometry">
            <Array as="points">
              <mxPoint x="230" y="310" />
            </Array>
          </mxGeometry>
        </mxCell>
        <mxCell id="02QyIaqTU8ALcR3R7Jes-27" style="edgeStyle=elbowEdgeStyle;rounded=0;orthogonalLoop=1;jettySize=auto;elbow=vertical;html=1;exitX=0.5;exitY=1;exitDx=0;exitDy=0;strokeColor=#FF0000;" edge="1" parent="XQE93nrc82hxhaSd3OuE-1" source="Oqv5y6zYF6AIueJO42CS-1" target="j7793P6GSeIkIbU1f-ir-2">
          <mxGeometry relative="1" as="geometry">
            <Array as="points">
              <mxPoint x="270" y="310" />
            </Array>
          </mxGeometry>
        </mxCell>
        <mxCell id="02QyIaqTU8ALcR3R7Jes-28" style="edgeStyle=elbowEdgeStyle;rounded=0;orthogonalLoop=1;jettySize=auto;elbow=vertical;html=1;exitX=0.5;exitY=1;exitDx=0;exitDy=0;strokeColor=#FF0000;" edge="1" parent="XQE93nrc82hxhaSd3OuE-1" source="Oqv5y6zYF6AIueJO42CS-1" target="j7793P6GSeIkIbU1f-ir-3">
          <mxGeometry relative="1" as="geometry">
            <Array as="points">
              <mxPoint x="210" y="310" />
            </Array>
          </mxGeometry>
        </mxCell>
        <mxCell id="02QyIaqTU8ALcR3R7Jes-29" style="edgeStyle=elbowEdgeStyle;rounded=0;orthogonalLoop=1;jettySize=auto;elbow=vertical;html=1;exitX=0.5;exitY=1;exitDx=0;exitDy=0;strokeColor=#FF0000;" edge="1" parent="XQE93nrc82hxhaSd3OuE-1" source="Oqv5y6zYF6AIueJO42CS-1" target="j7793P6GSeIkIbU1f-ir-5">
          <mxGeometry relative="1" as="geometry">
            <Array as="points">
              <mxPoint x="220" y="310" />
            </Array>
          </mxGeometry>
        </mxCell>
        <mxCell id="02QyIaqTU8ALcR3R7Jes-30" style="edgeStyle=elbowEdgeStyle;rounded=0;orthogonalLoop=1;jettySize=auto;elbow=vertical;html=1;exitX=0.5;exitY=1;exitDx=0;exitDy=0;strokeColor=#FF0000;" edge="1" parent="XQE93nrc82hxhaSd3OuE-1" source="Oqv5y6zYF6AIueJO42CS-1" target="j7793P6GSeIkIbU1f-ir-6">
          <mxGeometry relative="1" as="geometry">
            <Array as="points">
              <mxPoint x="250" y="310" />
            </Array>
          </mxGeometry>
        </mxCell>
        <mxCell id="02QyIaqTU8ALcR3R7Jes-33" style="edgeStyle=elbowEdgeStyle;rounded=0;orthogonalLoop=1;jettySize=auto;elbow=vertical;html=1;exitX=0.5;exitY=1;exitDx=0;exitDy=0;entryX=0.5;entryY=1;entryDx=0;entryDy=0;strokeColor=#FF0000;" edge="1" parent="XQE93nrc82hxhaSd3OuE-1" source="_Ikj2ntpnJ4bUoJ_dx_f-1" target="j7793P6GSeIkIbU1f-ir-4">
          <mxGeometry relative="1" as="geometry">
            <Array as="points">
              <mxPoint x="1140" y="440" />
            </Array>
          </mxGeometry>
        </mxCell>
        <mxCell id="02QyIaqTU8ALcR3R7Jes-34" style="edgeStyle=elbowEdgeStyle;rounded=0;orthogonalLoop=1;jettySize=auto;elbow=vertical;html=1;exitX=0.5;exitY=1;exitDx=0;exitDy=0;entryX=0.5;entryY=1;entryDx=0;entryDy=0;strokeColor=#FF0000;" edge="1" parent="XQE93nrc82hxhaSd3OuE-1" source="_Ikj2ntpnJ4bUoJ_dx_f-1" target="j7793P6GSeIkIbU1f-ir-6">
          <mxGeometry relative="1" as="geometry">
            <Array as="points">
              <mxPoint x="990" y="440" />
            </Array>
          </mxGeometry>
        </mxCell>
        <mxCell id="02QyIaqTU8ALcR3R7Jes-35" style="edgeStyle=elbowEdgeStyle;rounded=0;orthogonalLoop=1;jettySize=auto;elbow=vertical;html=1;exitX=0.5;exitY=1;exitDx=0;exitDy=0;entryX=0.5;entryY=1;entryDx=0;entryDy=0;strokeColor=#FF0000;" edge="1" parent="XQE93nrc82hxhaSd3OuE-1" source="_Ikj2ntpnJ4bUoJ_dx_f-1" target="j7793P6GSeIkIbU1f-ir-5">
          <mxGeometry relative="1" as="geometry">
            <Array as="points">
              <mxPoint x="930" y="440" />
            </Array>
          </mxGeometry>
        </mxCell>
        <mxCell id="02QyIaqTU8ALcR3R7Jes-36" style="edgeStyle=elbowEdgeStyle;rounded=0;orthogonalLoop=1;jettySize=auto;elbow=vertical;html=1;exitX=0.5;exitY=1;exitDx=0;exitDy=0;entryX=0.5;entryY=1;entryDx=0;entryDy=0;strokeColor=#FF0000;" edge="1" parent="XQE93nrc82hxhaSd3OuE-1" source="_Ikj2ntpnJ4bUoJ_dx_f-1" target="j7793P6GSeIkIbU1f-ir-3">
          <mxGeometry relative="1" as="geometry">
            <Array as="points">
              <mxPoint x="940" y="440" />
            </Array>
          </mxGeometry>
        </mxCell>
        <mxCell id="02QyIaqTU8ALcR3R7Jes-37" style="edgeStyle=elbowEdgeStyle;rounded=0;orthogonalLoop=1;jettySize=auto;elbow=vertical;html=1;exitX=0.5;exitY=1;exitDx=0;exitDy=0;entryX=0.5;entryY=1;entryDx=0;entryDy=0;strokeColor=#FF0000;" edge="1" parent="XQE93nrc82hxhaSd3OuE-1" source="_Ikj2ntpnJ4bUoJ_dx_f-1" target="j7793P6GSeIkIbU1f-ir-2">
          <mxGeometry relative="1" as="geometry">
            <Array as="points">
              <mxPoint x="940" y="440" />
            </Array>
          </mxGeometry>
        </mxCell>
        <mxCell id="02QyIaqTU8ALcR3R7Jes-38" style="edgeStyle=elbowEdgeStyle;rounded=0;orthogonalLoop=1;jettySize=auto;elbow=vertical;html=1;exitX=0.5;exitY=1;exitDx=0;exitDy=0;entryX=0.417;entryY=1;entryDx=0;entryDy=0;entryPerimeter=0;strokeColor=#FF0000;" edge="1" parent="XQE93nrc82hxhaSd3OuE-1" source="_Ikj2ntpnJ4bUoJ_dx_f-1" target="j7793P6GSeIkIbU1f-ir-1">
          <mxGeometry relative="1" as="geometry">
            <Array as="points">
              <mxPoint x="930" y="440" />
            </Array>
          </mxGeometry>
        </mxCell>
        <mxCell id="02QyIaqTU8ALcR3R7Jes-39" style="edgeStyle=elbowEdgeStyle;rounded=0;orthogonalLoop=1;jettySize=auto;elbow=vertical;html=1;exitX=0.5;exitY=1;exitDx=0;exitDy=0;entryX=0.5;entryY=0;entryDx=0;entryDy=0;strokeColor=#FF0000;" edge="1" parent="XQE93nrc82hxhaSd3OuE-1" source="Oqv5y6zYF6AIueJO42CS-1" target="j7793P6GSeIkIbU1f-ir-4">
          <mxGeometry relative="1" as="geometry">
            <Array as="points">
              <mxPoint x="190" y="310" />
            </Array>
          </mxGeometry>
        </mxCell>
        <mxCell id="02QyIaqTU8ALcR3R7Jes-40" style="edgeStyle=elbowEdgeStyle;rounded=0;orthogonalLoop=1;jettySize=auto;elbow=vertical;html=1;exitX=0.25;exitY=1;exitDx=0;exitDy=0;entryX=0.5;entryY=0;entryDx=0;entryDy=0;strokeColor=#FF0000;" edge="1" parent="XQE93nrc82hxhaSd3OuE-1" source="j7793P6GSeIkIbU1f-ir-4" target="02QyIaqTU8ALcR3R7Jes-1">
          <mxGeometry relative="1" as="geometry">
            <Array as="points">
              <mxPoint x="360" y="500" />
            </Array>
          </mxGeometry>
        </mxCell>
        <mxCell id="02QyIaqTU8ALcR3R7Jes-41" style="edgeStyle=elbowEdgeStyle;rounded=0;orthogonalLoop=1;jettySize=auto;elbow=vertical;html=1;exitX=0.25;exitY=1;exitDx=0;exitDy=0;entryX=0.5;entryY=0;entryDx=0;entryDy=0;strokeColor=#FF0000;" edge="1" parent="XQE93nrc82hxhaSd3OuE-1" source="j7793P6GSeIkIbU1f-ir-4" target="02QyIaqTU8ALcR3R7Jes-2">
          <mxGeometry relative="1" as="geometry">
            <Array as="points">
              <mxPoint x="500" y="500" />
            </Array>
          </mxGeometry>
        </mxCell>
        <mxCell id="02QyIaqTU8ALcR3R7Jes-42" style="edgeStyle=elbowEdgeStyle;rounded=0;orthogonalLoop=1;jettySize=auto;elbow=vertical;html=1;exitX=0.25;exitY=1;exitDx=0;exitDy=0;strokeColor=#FF0000;" edge="1" parent="XQE93nrc82hxhaSd3OuE-1" source="j7793P6GSeIkIbU1f-ir-4" target="02QyIaqTU8ALcR3R7Jes-3">
          <mxGeometry relative="1" as="geometry">
            <Array as="points">
              <mxPoint x="360" y="500" />
            </Array>
          </mxGeometry>
        </mxCell>
        <mxCell id="02QyIaqTU8ALcR3R7Jes-43" style="edgeStyle=elbowEdgeStyle;rounded=0;orthogonalLoop=1;jettySize=auto;elbow=vertical;html=1;exitX=0.5;exitY=1;exitDx=0;exitDy=0;entryX=1;entryY=0.5;entryDx=0;entryDy=0;strokeColor=#FF0000;" edge="1" parent="XQE93nrc82hxhaSd3OuE-1" source="_Ikj2ntpnJ4bUoJ_dx_f-1" target="02QyIaqTU8ALcR3R7Jes-1">
          <mxGeometry relative="1" as="geometry">
            <Array as="points">
              <mxPoint x="1180" y="560" />
            </Array>
          </mxGeometry>
        </mxCell>
      </root>
    </mxGraphModel>
  </diagram>
  <diagram id="vQ0AxCUCzucL1ZpMC791" name="Миграция ядра хранилища">
    <mxGraphModel dx="3588" dy="2830" grid="0" gridSize="10" guides="1" tooltips="1" connect="1" arrows="1" fold="1" page="0" pageScale="1" pageWidth="827" pageHeight="1169" math="0" shadow="0">
      <root>
        <mxCell id="0" />
        <mxCell id="1" parent="0" />
        <mxCell id="-ttaNwEr5wL1qXrof5S8-101" value="Обновляемые справочники" style="swimlane;fontStyle=1;childLayout=stackLayout;horizontal=1;startSize=26;horizontalStack=0;resizeParent=1;resizeParentMax=0;resizeLast=0;collapsible=1;marginBottom=0;fontSize=16;" vertex="1" parent="1">
          <mxGeometry x="-590" y="-1160" width="300" height="858" as="geometry">
            <mxRectangle x="-590" y="-1160" width="320" height="30" as="alternateBounds" />
          </mxGeometry>
        </mxCell>
        <mxCell id="-ttaNwEr5wL1qXrof5S8-249" value="STAGING" style="text;strokeColor=none;fillColor=none;align=left;verticalAlign=top;spacingLeft=4;spacingRight=4;overflow=hidden;rotatable=0;points=[[0,0.5],[1,0.5]];portConstraint=eastwest;fontStyle=1;fontSize=17;" vertex="1" parent="-ttaNwEr5wL1qXrof5S8-101">
          <mxGeometry y="26" width="300" height="26" as="geometry" />
        </mxCell>
        <mxCell id="-ttaNwEr5wL1qXrof5S8-102" value="business_entity" style="text;strokeColor=none;fillColor=none;align=left;verticalAlign=top;spacingLeft=4;spacingRight=4;overflow=hidden;rotatable=0;points=[[0,0.5],[1,0.5]];portConstraint=eastwest;fontSize=14;" vertex="1" parent="-ttaNwEr5wL1qXrof5S8-101">
          <mxGeometry y="52" width="300" height="26" as="geometry" />
        </mxCell>
        <mxCell id="-ttaNwEr5wL1qXrof5S8-103" value="certificate" style="text;strokeColor=none;fillColor=none;align=left;verticalAlign=top;spacingLeft=4;spacingRight=4;overflow=hidden;rotatable=0;points=[[0,0.5],[1,0.5]];portConstraint=eastwest;fontSize=14;" vertex="1" parent="-ttaNwEr5wL1qXrof5S8-101">
          <mxGeometry y="78" width="300" height="26" as="geometry" />
        </mxCell>
        <mxCell id="-ttaNwEr5wL1qXrof5S8-104" value="enterprise" style="text;strokeColor=none;fillColor=none;align=left;verticalAlign=top;spacingLeft=4;spacingRight=4;overflow=hidden;rotatable=0;points=[[0,0.5],[1,0.5]];portConstraint=eastwest;fontSize=14;" vertex="1" parent="-ttaNwEr5wL1qXrof5S8-101">
          <mxGeometry y="104" width="300" height="26" as="geometry" />
        </mxCell>
        <mxCell id="-ttaNwEr5wL1qXrof5S8-105" value="inventory" style="text;strokeColor=none;fillColor=none;align=left;verticalAlign=top;spacingLeft=4;spacingRight=4;overflow=hidden;rotatable=0;points=[[0,0.5],[1,0.5]];portConstraint=eastwest;fontSize=14;" vertex="1" parent="-ttaNwEr5wL1qXrof5S8-101">
          <mxGeometry y="130" width="300" height="26" as="geometry" />
        </mxCell>
        <mxCell id="-ttaNwEr5wL1qXrof5S8-106" value="original_document_id" style="text;strokeColor=none;fillColor=none;align=left;verticalAlign=top;spacingLeft=4;spacingRight=4;overflow=hidden;rotatable=0;points=[[0,0.5],[1,0.5]];portConstraint=eastwest;fontSize=14;" vertex="1" parent="-ttaNwEr5wL1qXrof5S8-101">
          <mxGeometry y="156" width="300" height="26" as="geometry" />
        </mxCell>
        <mxCell id="-ttaNwEr5wL1qXrof5S8-107" value="original_producer_id" style="text;strokeColor=none;fillColor=none;align=left;verticalAlign=top;spacingLeft=4;spacingRight=4;overflow=hidden;rotatable=0;points=[[0,0.5],[1,0.5]];portConstraint=eastwest;fontSize=14;" vertex="1" parent="-ttaNwEr5wL1qXrof5S8-101">
          <mxGeometry y="182" width="300" height="26" as="geometry" />
        </mxCell>
        <mxCell id="-ttaNwEr5wL1qXrof5S8-108" value="processed" style="text;strokeColor=none;fillColor=none;align=left;verticalAlign=top;spacingLeft=4;spacingRight=4;overflow=hidden;rotatable=0;points=[[0,0.5],[1,0.5]];portConstraint=eastwest;fontSize=14;" vertex="1" parent="-ttaNwEr5wL1qXrof5S8-101">
          <mxGeometry y="208" width="300" height="26" as="geometry" />
        </mxCell>
        <mxCell id="-ttaNwEr5wL1qXrof5S8-109" value="produced" style="text;strokeColor=none;fillColor=none;align=left;verticalAlign=top;spacingLeft=4;spacingRight=4;overflow=hidden;rotatable=0;points=[[0,0.5],[1,0.5]];portConstraint=eastwest;fontSize=14;" vertex="1" parent="-ttaNwEr5wL1qXrof5S8-101">
          <mxGeometry y="234" width="300" height="26" as="geometry" />
        </mxCell>
        <mxCell id="-ttaNwEr5wL1qXrof5S8-110" value="product_name" style="text;strokeColor=none;fillColor=none;align=left;verticalAlign=top;spacingLeft=4;spacingRight=4;overflow=hidden;rotatable=0;points=[[0,0.5],[1,0.5]];portConstraint=eastwest;fontSize=14;" vertex="1" parent="-ttaNwEr5wL1qXrof5S8-101">
          <mxGeometry y="260" width="300" height="26" as="geometry" />
        </mxCell>
        <mxCell id="-ttaNwEr5wL1qXrof5S8-111" value="RealTrafficVUVetDocumentLink" style="text;strokeColor=none;fillColor=none;align=left;verticalAlign=top;spacingLeft=4;spacingRight=4;overflow=hidden;rotatable=0;points=[[0,0.5],[1,0.5]];portConstraint=eastwest;fontSize=14;" vertex="1" parent="-ttaNwEr5wL1qXrof5S8-101">
          <mxGeometry y="286" width="300" height="26" as="geometry" />
        </mxCell>
        <mxCell id="-ttaNwEr5wL1qXrof5S8-112" value="sampling_act" style="text;strokeColor=none;fillColor=none;align=left;verticalAlign=top;spacingLeft=4;spacingRight=4;overflow=hidden;rotatable=0;points=[[0,0.5],[1,0.5]];portConstraint=eastwest;fontSize=14;" vertex="1" parent="-ttaNwEr5wL1qXrof5S8-101">
          <mxGeometry y="312" width="300" height="26" as="geometry" />
        </mxCell>
        <mxCell id="-ttaNwEr5wL1qXrof5S8-113" value="sub_product" style="text;strokeColor=none;fillColor=none;align=left;verticalAlign=top;spacingLeft=4;spacingRight=4;overflow=hidden;rotatable=0;points=[[0,0.5],[1,0.5]];portConstraint=eastwest;fontSize=14;" vertex="1" parent="-ttaNwEr5wL1qXrof5S8-101">
          <mxGeometry y="338" width="300" height="26" as="geometry" />
        </mxCell>
        <mxCell id="-ttaNwEr5wL1qXrof5S8-114" value="transaction" style="text;strokeColor=none;fillColor=none;align=left;verticalAlign=top;spacingLeft=4;spacingRight=4;overflow=hidden;rotatable=0;points=[[0,0.5],[1,0.5]];portConstraint=eastwest;fontSize=14;" vertex="1" parent="-ttaNwEr5wL1qXrof5S8-101">
          <mxGeometry y="364" width="300" height="26" as="geometry" />
        </mxCell>
        <mxCell id="-ttaNwEr5wL1qXrof5S8-115" value="users" style="text;strokeColor=none;fillColor=none;align=left;verticalAlign=top;spacingLeft=4;spacingRight=4;overflow=hidden;rotatable=0;points=[[0,0.5],[1,0.5]];portConstraint=eastwest;fontSize=14;" vertex="1" parent="-ttaNwEr5wL1qXrof5S8-101">
          <mxGeometry y="390" width="300" height="26" as="geometry" />
        </mxCell>
        <mxCell id="-ttaNwEr5wL1qXrof5S8-116" value="vesta_index" style="text;strokeColor=none;fillColor=none;align=left;verticalAlign=top;spacingLeft=4;spacingRight=4;overflow=hidden;rotatable=0;points=[[0,0.5],[1,0.5]];portConstraint=eastwest;fontSize=14;" vertex="1" parent="-ttaNwEr5wL1qXrof5S8-101">
          <mxGeometry y="416" width="300" height="26" as="geometry" />
        </mxCell>
        <mxCell id="-ttaNwEr5wL1qXrof5S8-117" value="vesta_index_element" style="text;strokeColor=none;fillColor=none;align=left;verticalAlign=top;spacingLeft=4;spacingRight=4;overflow=hidden;rotatable=0;points=[[0,0.5],[1,0.5]];portConstraint=eastwest;fontSize=14;" vertex="1" parent="-ttaNwEr5wL1qXrof5S8-101">
          <mxGeometry y="442" width="300" height="26" as="geometry" />
        </mxCell>
        <mxCell id="-ttaNwEr5wL1qXrof5S8-118" value="vesta_index_group" style="text;strokeColor=none;fillColor=none;align=left;verticalAlign=top;spacingLeft=4;spacingRight=4;overflow=hidden;rotatable=0;points=[[0,0.5],[1,0.5]];portConstraint=eastwest;fontSize=14;" vertex="1" parent="-ttaNwEr5wL1qXrof5S8-101">
          <mxGeometry y="468" width="300" height="26" as="geometry" />
        </mxCell>
        <mxCell id="-ttaNwEr5wL1qXrof5S8-119" value="vesta_material" style="text;strokeColor=none;fillColor=none;align=left;verticalAlign=top;spacingLeft=4;spacingRight=4;overflow=hidden;rotatable=0;points=[[0,0.5],[1,0.5]];portConstraint=eastwest;fontSize=14;" vertex="1" parent="-ttaNwEr5wL1qXrof5S8-101">
          <mxGeometry y="494" width="300" height="26" as="geometry" />
        </mxCell>
        <mxCell id="-ttaNwEr5wL1qXrof5S8-120" value="vesta_material_element" style="text;strokeColor=none;fillColor=none;align=left;verticalAlign=top;spacingLeft=4;spacingRight=4;overflow=hidden;rotatable=0;points=[[0,0.5],[1,0.5]];portConstraint=eastwest;fontSize=14;" vertex="1" parent="-ttaNwEr5wL1qXrof5S8-101">
          <mxGeometry y="520" width="300" height="26" as="geometry" />
        </mxCell>
        <mxCell id="-ttaNwEr5wL1qXrof5S8-121" value="vesta_material_group" style="text;strokeColor=none;fillColor=none;align=left;verticalAlign=top;spacingLeft=4;spacingRight=4;overflow=hidden;rotatable=0;points=[[0,0.5],[1,0.5]];portConstraint=eastwest;fontSize=14;" vertex="1" parent="-ttaNwEr5wL1qXrof5S8-101">
          <mxGeometry y="546" width="300" height="26" as="geometry" />
        </mxCell>
        <mxCell id="-ttaNwEr5wL1qXrof5S8-122" value="vesta_query_1" style="text;strokeColor=none;fillColor=none;align=left;verticalAlign=top;spacingLeft=4;spacingRight=4;overflow=hidden;rotatable=0;points=[[0,0.5],[1,0.5]];portConstraint=eastwest;fontSize=14;" vertex="1" parent="-ttaNwEr5wL1qXrof5S8-101">
          <mxGeometry y="572" width="300" height="26" as="geometry" />
        </mxCell>
        <mxCell id="-ttaNwEr5wL1qXrof5S8-123" value="vesta_query_2" style="text;strokeColor=none;fillColor=none;align=left;verticalAlign=top;spacingLeft=4;spacingRight=4;overflow=hidden;rotatable=0;points=[[0,0.5],[1,0.5]];portConstraint=eastwest;fontSize=14;" vertex="1" parent="-ttaNwEr5wL1qXrof5S8-101">
          <mxGeometry y="598" width="300" height="26" as="geometry" />
        </mxCell>
        <mxCell id="-ttaNwEr5wL1qXrof5S8-124" value="vet_certificate" style="text;strokeColor=none;fillColor=none;align=left;verticalAlign=top;spacingLeft=4;spacingRight=4;overflow=hidden;rotatable=0;points=[[0,0.5],[1,0.5]];portConstraint=eastwest;fontSize=14;" vertex="1" parent="-ttaNwEr5wL1qXrof5S8-101">
          <mxGeometry y="624" width="300" height="26" as="geometry" />
        </mxCell>
        <mxCell id="-ttaNwEr5wL1qXrof5S8-125" value="vet_certificate_product" style="text;strokeColor=none;fillColor=none;align=left;verticalAlign=top;spacingLeft=4;spacingRight=4;overflow=hidden;rotatable=0;points=[[0,0.5],[1,0.5]];portConstraint=eastwest;fontSize=14;" vertex="1" parent="-ttaNwEr5wL1qXrof5S8-101">
          <mxGeometry y="650" width="300" height="26" as="geometry" />
        </mxCell>
        <mxCell id="-ttaNwEr5wL1qXrof5S8-126" value="vetExpertise" style="text;strokeColor=none;fillColor=none;align=left;verticalAlign=top;spacingLeft=4;spacingRight=4;overflow=hidden;rotatable=0;points=[[0,0.5],[1,0.5]];portConstraint=eastwest;fontSize=14;" vertex="1" parent="-ttaNwEr5wL1qXrof5S8-101">
          <mxGeometry y="676" width="300" height="26" as="geometry" />
        </mxCell>
        <mxCell id="-ttaNwEr5wL1qXrof5S8-127" value="vu_src" style="text;strokeColor=none;fillColor=none;align=left;verticalAlign=top;spacingLeft=4;spacingRight=4;overflow=hidden;rotatable=0;points=[[0,0.5],[1,0.5]];portConstraint=eastwest;fontSize=14;" vertex="1" parent="-ttaNwEr5wL1qXrof5S8-101">
          <mxGeometry y="702" width="300" height="26" as="geometry" />
        </mxCell>
        <mxCell id="-ttaNwEr5wL1qXrof5S8-128" value="vu_src_producer" style="text;strokeColor=none;fillColor=none;align=left;verticalAlign=top;spacingLeft=4;spacingRight=4;overflow=hidden;rotatable=0;points=[[0,0.5],[1,0.5]];portConstraint=eastwest;fontSize=14;" vertex="1" parent="-ttaNwEr5wL1qXrof5S8-101">
          <mxGeometry y="728" width="300" height="26" as="geometry" />
        </mxCell>
        <mxCell id="-ttaNwEr5wL1qXrof5S8-254" value="vu_src_vet_certificate" style="text;strokeColor=none;fillColor=none;align=left;verticalAlign=top;spacingLeft=4;spacingRight=4;overflow=hidden;rotatable=0;points=[[0,0.5],[1,0.5]];portConstraint=eastwest;fontSize=14;" vertex="1" parent="-ttaNwEr5wL1qXrof5S8-101">
          <mxGeometry y="754" width="300" height="26" as="geometry" />
        </mxCell>
        <mxCell id="-ttaNwEr5wL1qXrof5S8-255" value="STAGING AI" style="text;strokeColor=none;fillColor=none;align=left;verticalAlign=top;spacingLeft=4;spacingRight=4;overflow=hidden;rotatable=0;points=[[0,0.5],[1,0.5]];portConstraint=eastwest;fontStyle=1;fontSize=16;" vertex="1" parent="-ttaNwEr5wL1qXrof5S8-101">
          <mxGeometry y="780" width="300" height="26" as="geometry" />
        </mxCell>
        <mxCell id="-ttaNwEr5wL1qXrof5S8-257" value="public.violations" style="text;strokeColor=none;fillColor=none;align=left;verticalAlign=top;spacingLeft=4;spacingRight=4;overflow=hidden;rotatable=0;points=[[0,0.5],[1,0.5]];portConstraint=eastwest;fontStyle=0;fontSize=16;" vertex="1" parent="-ttaNwEr5wL1qXrof5S8-101">
          <mxGeometry y="806" width="300" height="26" as="geometry" />
        </mxCell>
        <mxCell id="-ttaNwEr5wL1qXrof5S8-252" value="public.violations_references" style="text;strokeColor=none;fillColor=none;align=left;verticalAlign=top;spacingLeft=4;spacingRight=4;overflow=hidden;rotatable=0;points=[[0,0.5],[1,0.5]];portConstraint=eastwest;fontStyle=0;fontSize=16;" vertex="1" parent="-ttaNwEr5wL1qXrof5S8-101">
          <mxGeometry y="832" width="300" height="26" as="geometry" />
        </mxCell>
        <mxCell id="-ttaNwEr5wL1qXrof5S8-182" value="Не обновляется (статичные справочники)" style="swimlane;fontStyle=1;childLayout=stackLayout;horizontal=1;startSize=26;horizontalStack=0;resizeParent=1;resizeParentMax=0;resizeLast=0;collapsible=1;marginBottom=0;fontSize=16;" vertex="1" parent="1">
          <mxGeometry x="680" y="-1162" width="470" height="1404" as="geometry">
            <mxRectangle x="680" y="-1162" width="367" height="32" as="alternateBounds" />
          </mxGeometry>
        </mxCell>
        <mxCell id="-ttaNwEr5wL1qXrof5S8-250" value="STAGING" style="text;strokeColor=none;fillColor=none;align=left;verticalAlign=top;spacingLeft=4;spacingRight=4;overflow=hidden;rotatable=0;points=[[0,0.5],[1,0.5]];portConstraint=eastwest;fontSize=16;fontStyle=1" vertex="1" parent="-ttaNwEr5wL1qXrof5S8-182">
          <mxGeometry y="26" width="470" height="26" as="geometry" />
        </mxCell>
        <mxCell id="-ttaNwEr5wL1qXrof5S8-183" value="activity_type (Справочник малый)" style="text;strokeColor=none;fillColor=none;align=left;verticalAlign=top;spacingLeft=4;spacingRight=4;overflow=hidden;rotatable=0;points=[[0,0.5],[1,0.5]];portConstraint=eastwest;fontSize=15;" vertex="1" parent="-ttaNwEr5wL1qXrof5S8-182">
          <mxGeometry y="52" width="470" height="26" as="geometry" />
        </mxCell>
        <mxCell id="-ttaNwEr5wL1qXrof5S8-184" value="business_entity_okved (Справочник средний)" style="text;strokeColor=none;fillColor=none;align=left;verticalAlign=top;spacingLeft=4;spacingRight=4;overflow=hidden;rotatable=0;points=[[0,0.5],[1,0.5]];portConstraint=eastwest;fontSize=14;" vertex="1" parent="-ttaNwEr5wL1qXrof5S8-182">
          <mxGeometry y="78" width="470" height="26" as="geometry" />
        </mxCell>
        <mxCell id="-ttaNwEr5wL1qXrof5S8-185" value="business_entity_type (Справочник средний)" style="text;strokeColor=none;fillColor=none;align=left;verticalAlign=top;spacingLeft=4;spacingRight=4;overflow=hidden;rotatable=0;points=[[0,0.5],[1,0.5]];portConstraint=eastwest;fontSize=14;" vertex="1" parent="-ttaNwEr5wL1qXrof5S8-182">
          <mxGeometry y="104" width="470" height="26" as="geometry" />
        </mxCell>
        <mxCell id="-ttaNwEr5wL1qXrof5S8-186" value="cerberus_activity_type (Справочник малый)" style="text;strokeColor=none;fillColor=none;align=left;verticalAlign=top;spacingLeft=4;spacingRight=4;overflow=hidden;rotatable=0;points=[[0,0.5],[1,0.5]];portConstraint=eastwest;fontSize=14;" vertex="1" parent="-ttaNwEr5wL1qXrof5S8-182">
          <mxGeometry y="130" width="470" height="26" as="geometry" />
        </mxCell>
        <mxCell id="-ttaNwEr5wL1qXrof5S8-187" value="certificate_isreqsource_type (Справочник малый)" style="text;strokeColor=none;fillColor=none;align=left;verticalAlign=top;spacingLeft=4;spacingRight=4;overflow=hidden;rotatable=0;points=[[0,0.5],[1,0.5]];portConstraint=eastwest;fontSize=14;" vertex="1" parent="-ttaNwEr5wL1qXrof5S8-182">
          <mxGeometry y="156" width="470" height="26" as="geometry" />
        </mxCell>
        <mxCell id="-ttaNwEr5wL1qXrof5S8-188" value="certificate_isrequest_type (Справочник малый)" style="text;strokeColor=none;fillColor=none;align=left;verticalAlign=top;spacingLeft=4;spacingRight=4;overflow=hidden;rotatable=0;points=[[0,0.5],[1,0.5]];portConstraint=eastwest;fontSize=14;" vertex="1" parent="-ttaNwEr5wL1qXrof5S8-182">
          <mxGeometry y="182" width="470" height="26" as="geometry" />
        </mxCell>
        <mxCell id="-ttaNwEr5wL1qXrof5S8-189" value="certificate_nature (Справочник малый)" style="text;strokeColor=none;fillColor=none;align=left;verticalAlign=top;spacingLeft=4;spacingRight=4;overflow=hidden;rotatable=0;points=[[0,0.5],[1,0.5]];portConstraint=eastwest;fontSize=14;" vertex="1" parent="-ttaNwEr5wL1qXrof5S8-182">
          <mxGeometry y="208" width="470" height="26" as="geometry" />
        </mxCell>
        <mxCell id="-ttaNwEr5wL1qXrof5S8-190" value="certificate_protected (Справочник малый)" style="text;strokeColor=none;fillColor=none;align=left;verticalAlign=top;spacingLeft=4;spacingRight=4;overflow=hidden;rotatable=0;points=[[0,0.5],[1,0.5]];portConstraint=eastwest;fontSize=14;" vertex="1" parent="-ttaNwEr5wL1qXrof5S8-182">
          <mxGeometry y="234" width="470" height="26" as="geometry" />
        </mxCell>
        <mxCell id="-ttaNwEr5wL1qXrof5S8-191" value="certificate_source (Справочник малый)" style="text;strokeColor=none;fillColor=none;align=left;verticalAlign=top;spacingLeft=4;spacingRight=4;overflow=hidden;rotatable=0;points=[[0,0.5],[1,0.5]];portConstraint=eastwest;fontSize=14;" vertex="1" parent="-ttaNwEr5wL1qXrof5S8-182">
          <mxGeometry y="260" width="470" height="26" as="geometry" />
        </mxCell>
        <mxCell id="-ttaNwEr5wL1qXrof5S8-192" value="certificate_status (Справочник малый)" style="text;strokeColor=none;fillColor=none;align=left;verticalAlign=top;spacingLeft=4;spacingRight=4;overflow=hidden;rotatable=0;points=[[0,0.5],[1,0.5]];portConstraint=eastwest;fontSize=14;" vertex="1" parent="-ttaNwEr5wL1qXrof5S8-182">
          <mxGeometry y="286" width="470" height="26" as="geometry" />
        </mxCell>
        <mxCell id="-ttaNwEr5wL1qXrof5S8-193" value="certificate_type (Справочник малый)" style="text;strokeColor=none;fillColor=none;align=left;verticalAlign=top;spacingLeft=4;spacingRight=4;overflow=hidden;rotatable=0;points=[[0,0.5],[1,0.5]];portConstraint=eastwest;fontSize=14;" vertex="1" parent="-ttaNwEr5wL1qXrof5S8-182">
          <mxGeometry y="312" width="470" height="26" as="geometry" />
        </mxCell>
        <mxCell id="-ttaNwEr5wL1qXrof5S8-194" value="certificate_vetform (Справочник малый)" style="text;strokeColor=none;fillColor=none;align=left;verticalAlign=top;spacingLeft=4;spacingRight=4;overflow=hidden;rotatable=0;points=[[0,0.5],[1,0.5]];portConstraint=eastwest;fontSize=14;" vertex="1" parent="-ttaNwEr5wL1qXrof5S8-182">
          <mxGeometry y="338" width="470" height="26" as="geometry" />
        </mxCell>
        <mxCell id="-ttaNwEr5wL1qXrof5S8-195" value="certified_activity (Справочник малый)" style="text;strokeColor=none;fillColor=none;align=left;verticalAlign=top;spacingLeft=4;spacingRight=4;overflow=hidden;rotatable=0;points=[[0,0.5],[1,0.5]];portConstraint=eastwest;fontSize=14;" vertex="1" parent="-ttaNwEr5wL1qXrof5S8-182">
          <mxGeometry y="364" width="470" height="26" as="geometry" />
        </mxCell>
        <mxCell id="-ttaNwEr5wL1qXrof5S8-196" value="certified_product_info (Справочник средний)" style="text;strokeColor=none;fillColor=none;align=left;verticalAlign=top;spacingLeft=4;spacingRight=4;overflow=hidden;rotatable=0;points=[[0,0.5],[1,0.5]];portConstraint=eastwest;fontSize=14;" vertex="1" parent="-ttaNwEr5wL1qXrof5S8-182">
          <mxGeometry y="390" width="470" height="26" as="geometry" />
        </mxCell>
        <mxCell id="-ttaNwEr5wL1qXrof5S8-197" value="certified_product_info_certified_activity (Справочник средний)" style="text;strokeColor=none;fillColor=none;align=left;verticalAlign=top;spacingLeft=4;spacingRight=4;overflow=hidden;rotatable=0;points=[[0,0.5],[1,0.5]];portConstraint=eastwest;fontSize=14;" vertex="1" parent="-ttaNwEr5wL1qXrof5S8-182">
          <mxGeometry y="416" width="470" height="26" as="geometry" />
        </mxCell>
        <mxCell id="-ttaNwEr5wL1qXrof5S8-198" value="CodeOkved (Справочник малый)" style="text;strokeColor=none;fillColor=none;align=left;verticalAlign=top;spacingLeft=4;spacingRight=4;overflow=hidden;rotatable=0;points=[[0,0.5],[1,0.5]];portConstraint=eastwest;fontSize=14;" vertex="1" parent="-ttaNwEr5wL1qXrof5S8-182">
          <mxGeometry y="442" width="470" height="26" as="geometry" />
        </mxCell>
        <mxCell id="-ttaNwEr5wL1qXrof5S8-199" value="company  (Справочник малый) " style="text;strokeColor=none;fillColor=none;align=left;verticalAlign=top;spacingLeft=4;spacingRight=4;overflow=hidden;rotatable=0;points=[[0,0.5],[1,0.5]];portConstraint=eastwest;fontSize=14;" vertex="1" parent="-ttaNwEr5wL1qXrof5S8-182">
          <mxGeometry y="468" width="470" height="26" as="geometry" />
        </mxCell>
        <mxCell id="-ttaNwEr5wL1qXrof5S8-200" value="company_type (Справочник малый) " style="text;strokeColor=none;fillColor=none;align=left;verticalAlign=top;spacingLeft=4;spacingRight=4;overflow=hidden;rotatable=0;points=[[0,0.5],[1,0.5]];portConstraint=eastwest;fontSize=14;" vertex="1" parent="-ttaNwEr5wL1qXrof5S8-182">
          <mxGeometry y="494" width="470" height="26" as="geometry" />
        </mxCell>
        <mxCell id="-ttaNwEr5wL1qXrof5S8-201" value="compartment (Справочник малый) " style="text;strokeColor=none;fillColor=none;align=left;verticalAlign=top;spacingLeft=4;spacingRight=4;overflow=hidden;rotatable=0;points=[[0,0.5],[1,0.5]];portConstraint=eastwest;fontSize=14;" vertex="1" parent="-ttaNwEr5wL1qXrof5S8-182">
          <mxGeometry y="520" width="470" height="26" as="geometry" />
        </mxCell>
        <mxCell id="-ttaNwEr5wL1qXrof5S8-202" value="country (Справочник малый) " style="text;strokeColor=none;fillColor=none;align=left;verticalAlign=top;spacingLeft=4;spacingRight=4;overflow=hidden;rotatable=0;points=[[0,0.5],[1,0.5]];portConstraint=eastwest;fontSize=14;" vertex="1" parent="-ttaNwEr5wL1qXrof5S8-182">
          <mxGeometry y="546" width="470" height="26" as="geometry" />
        </mxCell>
        <mxCell id="-ttaNwEr5wL1qXrof5S8-203" value="datasources  (Справочник малый) " style="text;strokeColor=none;fillColor=none;align=left;verticalAlign=top;spacingLeft=4;spacingRight=4;overflow=hidden;rotatable=0;points=[[0,0.5],[1,0.5]];portConstraint=eastwest;fontSize=14;" vertex="1" parent="-ttaNwEr5wL1qXrof5S8-182">
          <mxGeometry y="572" width="470" height="26" as="geometry" />
        </mxCell>
        <mxCell id="-ttaNwEr5wL1qXrof5S8-206" value="diseases  (Справочник малый) " style="text;strokeColor=none;fillColor=none;align=left;verticalAlign=top;spacingLeft=4;spacingRight=4;overflow=hidden;rotatable=0;points=[[0,0.5],[1,0.5]];portConstraint=eastwest;fontSize=14;" vertex="1" parent="-ttaNwEr5wL1qXrof5S8-182">
          <mxGeometry y="598" width="470" height="26" as="geometry" />
        </mxCell>
        <mxCell id="-ttaNwEr5wL1qXrof5S8-208" value="enterprise_type (Справочник малый) " style="text;strokeColor=none;fillColor=none;align=left;verticalAlign=top;spacingLeft=4;spacingRight=4;overflow=hidden;rotatable=0;points=[[0,0.5],[1,0.5]];portConstraint=eastwest;fontSize=14;" vertex="1" parent="-ttaNwEr5wL1qXrof5S8-182">
          <mxGeometry y="624" width="470" height="26" as="geometry" />
        </mxCell>
        <mxCell id="-ttaNwEr5wL1qXrof5S8-209" value="federalDistrict (Справочник малый) " style="text;strokeColor=none;fillColor=none;align=left;verticalAlign=top;spacingLeft=4;spacingRight=4;overflow=hidden;rotatable=0;points=[[0,0.5],[1,0.5]];portConstraint=eastwest;fontSize=14;" vertex="1" parent="-ttaNwEr5wL1qXrof5S8-182">
          <mxGeometry y="650" width="470" height="26" as="geometry" />
        </mxCell>
        <mxCell id="-ttaNwEr5wL1qXrof5S8-210" value="former (Справочник малый) " style="text;strokeColor=none;fillColor=none;align=left;verticalAlign=top;spacingLeft=4;spacingRight=4;overflow=hidden;rotatable=0;points=[[0,0.5],[1,0.5]];portConstraint=eastwest;fontSize=14;" vertex="1" parent="-ttaNwEr5wL1qXrof5S8-182">
          <mxGeometry y="676" width="470" height="26" as="geometry" />
        </mxCell>
        <mxCell id="-ttaNwEr5wL1qXrof5S8-211" value="milk_type (Справочник малый) " style="text;strokeColor=none;fillColor=none;align=left;verticalAlign=top;spacingLeft=4;spacingRight=4;overflow=hidden;rotatable=0;points=[[0,0.5],[1,0.5]];portConstraint=eastwest;fontSize=14;" vertex="1" parent="-ttaNwEr5wL1qXrof5S8-182">
          <mxGeometry y="702" width="470" height="26" as="geometry" />
        </mxCell>
        <mxCell id="-ttaNwEr5wL1qXrof5S8-212" value="package_type (Справочник малый) " style="text;strokeColor=none;fillColor=none;align=left;verticalAlign=top;spacingLeft=4;spacingRight=4;overflow=hidden;rotatable=0;points=[[0,0.5],[1,0.5]];portConstraint=eastwest;fontSize=14;" vertex="1" parent="-ttaNwEr5wL1qXrof5S8-182">
          <mxGeometry y="728" width="470" height="26" as="geometry" />
        </mxCell>
        <mxCell id="-ttaNwEr5wL1qXrof5S8-213" value="permissions (Справочник средний)" style="text;strokeColor=none;fillColor=none;align=left;verticalAlign=top;spacingLeft=4;spacingRight=4;overflow=hidden;rotatable=0;points=[[0,0.5],[1,0.5]];portConstraint=eastwest;fontSize=14;" vertex="1" parent="-ttaNwEr5wL1qXrof5S8-182">
          <mxGeometry y="754" width="470" height="26" as="geometry" />
        </mxCell>
        <mxCell id="-ttaNwEr5wL1qXrof5S8-214" value="permissions_checkpoint (Справочник средний)" style="text;strokeColor=none;fillColor=none;align=left;verticalAlign=top;spacingLeft=4;spacingRight=4;overflow=hidden;rotatable=0;points=[[0,0.5],[1,0.5]];portConstraint=eastwest;fontSize=14;" vertex="1" parent="-ttaNwEr5wL1qXrof5S8-182">
          <mxGeometry y="780" width="470" height="26" as="geometry" />
        </mxCell>
        <mxCell id="-ttaNwEr5wL1qXrof5S8-215" value="permissions_product (Справочник средний)" style="text;strokeColor=none;fillColor=none;align=left;verticalAlign=top;spacingLeft=4;spacingRight=4;overflow=hidden;rotatable=0;points=[[0,0.5],[1,0.5]];portConstraint=eastwest;fontSize=14;" vertex="1" parent="-ttaNwEr5wL1qXrof5S8-182">
          <mxGeometry y="806" width="470" height="26" as="geometry" />
        </mxCell>
        <mxCell id="-ttaNwEr5wL1qXrof5S8-216" value="product (Справочник малый) " style="text;strokeColor=none;fillColor=none;align=left;verticalAlign=top;spacingLeft=4;spacingRight=4;overflow=hidden;rotatable=0;points=[[0,0.5],[1,0.5]];portConstraint=eastwest;fontSize=14;" vertex="1" parent="-ttaNwEr5wL1qXrof5S8-182">
          <mxGeometry y="832" width="470" height="26" as="geometry" />
        </mxCell>
        <mxCell id="-ttaNwEr5wL1qXrof5S8-217" value="product_type (Справочник малый) " style="text;strokeColor=none;fillColor=none;align=left;verticalAlign=top;spacingLeft=4;spacingRight=4;overflow=hidden;rotatable=0;points=[[0,0.5],[1,0.5]];portConstraint=eastwest;fontSize=14;" vertex="1" parent="-ttaNwEr5wL1qXrof5S8-182">
          <mxGeometry y="858" width="470" height="26" as="geometry" />
        </mxCell>
        <mxCell id="-ttaNwEr5wL1qXrof5S8-218" value="region (Справочник малый) " style="text;strokeColor=none;fillColor=none;align=left;verticalAlign=top;spacingLeft=4;spacingRight=4;overflow=hidden;rotatable=0;points=[[0,0.5],[1,0.5]];portConstraint=eastwest;fontSize=14;" vertex="1" parent="-ttaNwEr5wL1qXrof5S8-182">
          <mxGeometry y="884" width="470" height="26" as="geometry" />
        </mxCell>
        <mxCell id="-ttaNwEr5wL1qXrof5S8-219" value="region_disease_status   - устаревшее" style="text;strokeColor=none;fillColor=none;align=left;verticalAlign=top;spacingLeft=4;spacingRight=4;overflow=hidden;rotatable=0;points=[[0,0.5],[1,0.5]];portConstraint=eastwest;fontSize=14;" vertex="1" parent="-ttaNwEr5wL1qXrof5S8-182">
          <mxGeometry y="910" width="470" height="26" as="geometry" />
        </mxCell>
        <mxCell id="-ttaNwEr5wL1qXrof5S8-220" value="registration_request -  (Справочник средний) не обновляется, используется" style="text;strokeColor=none;fillColor=none;align=left;verticalAlign=top;spacingLeft=4;spacingRight=4;overflow=hidden;rotatable=0;points=[[0,0.5],[1,0.5]];portConstraint=eastwest;fontSize=14;" vertex="1" parent="-ttaNwEr5wL1qXrof5S8-182">
          <mxGeometry y="936" width="470" height="26" as="geometry" />
        </mxCell>
        <mxCell id="-ttaNwEr5wL1qXrof5S8-221" value="returned - пусто" style="text;strokeColor=none;fillColor=none;align=left;verticalAlign=top;spacingLeft=4;spacingRight=4;overflow=hidden;rotatable=0;points=[[0,0.5],[1,0.5]];portConstraint=eastwest;fontSize=14;" vertex="1" parent="-ttaNwEr5wL1qXrof5S8-182">
          <mxGeometry y="962" width="470" height="26" as="geometry" />
        </mxCell>
        <mxCell id="-ttaNwEr5wL1qXrof5S8-222" value="sub_region (Справочник малый) " style="text;strokeColor=none;fillColor=none;align=left;verticalAlign=top;spacingLeft=4;spacingRight=4;overflow=hidden;rotatable=0;points=[[0,0.5],[1,0.5]];portConstraint=eastwest;fontSize=14;" vertex="1" parent="-ttaNwEr5wL1qXrof5S8-182">
          <mxGeometry y="988" width="470" height="26" as="geometry" />
        </mxCell>
        <mxCell id="-ttaNwEr5wL1qXrof5S8-223" value="supervised_object - (Справочник Большой) не обновляется" style="text;strokeColor=none;fillColor=none;align=left;verticalAlign=top;spacingLeft=4;spacingRight=4;overflow=hidden;rotatable=0;points=[[0,0.5],[1,0.5]];portConstraint=eastwest;fontSize=14;" vertex="1" parent="-ttaNwEr5wL1qXrof5S8-182">
          <mxGeometry y="1014" width="470" height="26" as="geometry" />
        </mxCell>
        <mxCell id="-ttaNwEr5wL1qXrof5S8-224" value="supervised_object_activity_type - (Справочник Большой) не обновляется" style="text;strokeColor=none;fillColor=none;align=left;verticalAlign=top;spacingLeft=4;spacingRight=4;overflow=hidden;rotatable=0;points=[[0,0.5],[1,0.5]];portConstraint=eastwest;fontSize=14;" vertex="1" parent="-ttaNwEr5wL1qXrof5S8-182">
          <mxGeometry y="1040" width="470" height="26" as="geometry" />
        </mxCell>
        <mxCell id="-ttaNwEr5wL1qXrof5S8-225" value="supervised_object_certified_product_info -  (Справочник средний) не обновляется" style="text;strokeColor=none;fillColor=none;align=left;verticalAlign=top;spacingLeft=4;spacingRight=4;overflow=hidden;rotatable=0;points=[[0,0.5],[1,0.5]];portConstraint=eastwest;fontSize=14;" vertex="1" parent="-ttaNwEr5wL1qXrof5S8-182">
          <mxGeometry y="1066" width="470" height="26" as="geometry" />
        </mxCell>
        <mxCell id="-ttaNwEr5wL1qXrof5S8-226" value="supervised_object_type (Справочник малый) " style="text;strokeColor=none;fillColor=none;align=left;verticalAlign=top;spacingLeft=4;spacingRight=4;overflow=hidden;rotatable=0;points=[[0,0.5],[1,0.5]];portConstraint=eastwest;fontSize=14;" vertex="1" parent="-ttaNwEr5wL1qXrof5S8-182">
          <mxGeometry y="1092" width="470" height="26" as="geometry" />
        </mxCell>
        <mxCell id="-ttaNwEr5wL1qXrof5S8-227" value="transfer_type (Справочник малый)" style="text;strokeColor=none;fillColor=none;align=left;verticalAlign=top;spacingLeft=4;spacingRight=4;overflow=hidden;rotatable=0;points=[[0,0.5],[1,0.5]];portConstraint=eastwest;fontSize=14;" vertex="1" parent="-ttaNwEr5wL1qXrof5S8-182">
          <mxGeometry y="1118" width="470" height="26" as="geometry" />
        </mxCell>
        <mxCell id="-ttaNwEr5wL1qXrof5S8-228" value="unit  (Справочник малый)" style="text;strokeColor=none;fillColor=none;align=left;verticalAlign=top;spacingLeft=4;spacingRight=4;overflow=hidden;rotatable=0;points=[[0,0.5],[1,0.5]];portConstraint=eastwest;fontSize=14;" vertex="1" parent="-ttaNwEr5wL1qXrof5S8-182">
          <mxGeometry y="1144" width="470" height="26" as="geometry" />
        </mxCell>
        <mxCell id="-ttaNwEr5wL1qXrof5S8-229" value="unit_find (Справочник малый)" style="text;strokeColor=none;fillColor=none;align=left;verticalAlign=top;spacingLeft=4;spacingRight=4;overflow=hidden;rotatable=0;points=[[0,0.5],[1,0.5]];portConstraint=eastwest;fontSize=14;" vertex="1" parent="-ttaNwEr5wL1qXrof5S8-182">
          <mxGeometry y="1170" width="470" height="26" as="geometry" />
        </mxCell>
        <mxCell id="-ttaNwEr5wL1qXrof5S8-230" value="user_locking Справочник средний) " style="text;strokeColor=none;fillColor=none;align=left;verticalAlign=top;spacingLeft=4;spacingRight=4;overflow=hidden;rotatable=0;points=[[0,0.5],[1,0.5]];portConstraint=eastwest;fontSize=14;" vertex="1" parent="-ttaNwEr5wL1qXrof5S8-182">
          <mxGeometry y="1196" width="470" height="26" as="geometry" />
        </mxCell>
        <mxCell id="-ttaNwEr5wL1qXrof5S8-231" value="user_type Справочник средний) " style="text;strokeColor=none;fillColor=none;align=left;verticalAlign=top;spacingLeft=4;spacingRight=4;overflow=hidden;rotatable=0;points=[[0,0.5],[1,0.5]];portConstraint=eastwest;fontSize=14;" vertex="1" parent="-ttaNwEr5wL1qXrof5S8-182">
          <mxGeometry y="1222" width="470" height="26" as="geometry" />
        </mxCell>
        <mxCell id="-ttaNwEr5wL1qXrof5S8-258" value="table_update_log (Справочник малый) - обновляемый, инфо о загрузках" style="text;strokeColor=none;fillColor=none;align=left;verticalAlign=top;spacingLeft=4;spacingRight=4;overflow=hidden;rotatable=0;points=[[0,0.5],[1,0.5]];portConstraint=eastwest;fontSize=14;" vertex="1" parent="-ttaNwEr5wL1qXrof5S8-182">
          <mxGeometry y="1248" width="470" height="26" as="geometry" />
        </mxCell>
        <mxCell id="-ttaNwEr5wL1qXrof5S8-259" value="STAGING AI" style="text;strokeColor=none;fillColor=none;align=left;verticalAlign=top;spacingLeft=4;spacingRight=4;overflow=hidden;rotatable=0;points=[[0,0.5],[1,0.5]];portConstraint=eastwest;fontStyle=1;fontSize=16;" vertex="1" parent="-ttaNwEr5wL1qXrof5S8-182">
          <mxGeometry y="1274" width="470" height="26" as="geometry" />
        </mxCell>
        <mxCell id="-ttaNwEr5wL1qXrof5S8-260" value="purpose" style="text;strokeColor=none;fillColor=none;align=left;verticalAlign=top;spacingLeft=4;spacingRight=4;overflow=hidden;rotatable=0;points=[[0,0.5],[1,0.5]];portConstraint=eastwest;fontStyle=0;fontSize=15;" vertex="1" parent="-ttaNwEr5wL1qXrof5S8-182">
          <mxGeometry y="1300" width="470" height="26" as="geometry" />
        </mxCell>
        <mxCell id="-ttaNwEr5wL1qXrof5S8-262" value="transport_type" style="text;strokeColor=none;fillColor=none;align=left;verticalAlign=top;spacingLeft=4;spacingRight=4;overflow=hidden;rotatable=0;points=[[0,0.5],[1,0.5]];portConstraint=eastwest;fontStyle=0;fontSize=14;" vertex="1" parent="-ttaNwEr5wL1qXrof5S8-182">
          <mxGeometry y="1326" width="470" height="26" as="geometry" />
        </mxCell>
        <mxCell id="-ttaNwEr5wL1qXrof5S8-261" value="vet_expertise" style="text;strokeColor=none;fillColor=none;align=left;verticalAlign=top;spacingLeft=4;spacingRight=4;overflow=hidden;rotatable=0;points=[[0,0.5],[1,0.5]];portConstraint=eastwest;fontStyle=0;fontSize=14;" vertex="1" parent="-ttaNwEr5wL1qXrof5S8-182">
          <mxGeometry y="1352" width="470" height="26" as="geometry" />
        </mxCell>
        <mxCell id="-ttaNwEr5wL1qXrof5S8-232" value="public.dim_frod_sub_category" style="text;strokeColor=none;fillColor=none;align=left;verticalAlign=top;spacingLeft=4;spacingRight=4;overflow=hidden;rotatable=0;points=[[0,0.5],[1,0.5]];portConstraint=eastwest;fontStyle=0;fontSize=15;" vertex="1" parent="-ttaNwEr5wL1qXrof5S8-182">
          <mxGeometry y="1378" width="470" height="26" as="geometry" />
        </mxCell>
        <mxCell id="-ttaNwEr5wL1qXrof5S8-233" value="&lt;b&gt;&lt;font style=&quot;font-size: 18px;&quot;&gt;DWH GP&lt;/font&gt;&lt;/b&gt;" style="shape=cylinder3;whiteSpace=wrap;html=1;boundedLbl=1;backgroundOutline=1;size=15;" vertex="1" parent="1">
          <mxGeometry x="170" y="-990" width="200" height="300" as="geometry" />
        </mxCell>
        <mxCell id="-ttaNwEr5wL1qXrof5S8-234" value="&lt;font style=&quot;font-size: 14px;&quot;&gt;&lt;b style=&quot;&quot;&gt;Ежедневный сценарий инкрементального обновления&lt;/b&gt;&lt;/font&gt;" style="shape=document;whiteSpace=wrap;html=1;boundedLbl=1;" vertex="1" parent="1">
          <mxGeometry x="-150" y="-885" width="190" height="110" as="geometry" />
        </mxCell>
        <mxCell id="-ttaNwEr5wL1qXrof5S8-235" value="&lt;b&gt;&lt;font style=&quot;font-size: 18px;&quot;&gt;Выгрузка исторических данных&lt;/font&gt;&lt;/b&gt;" style="shape=document;whiteSpace=wrap;html=1;boundedLbl=1;" vertex="1" parent="1">
          <mxGeometry x="-150" y="-1060" width="190" height="110" as="geometry" />
        </mxCell>
        <mxCell id="-ttaNwEr5wL1qXrof5S8-236" value="&lt;b&gt;&lt;font style=&quot;font-size: 14px;&quot;&gt;Недельный сценарий инкрементального обновления&lt;/font&gt;&lt;/b&gt;" style="shape=document;whiteSpace=wrap;html=1;boundedLbl=1;" vertex="1" parent="1">
          <mxGeometry x="-150" y="-710" width="190" height="110" as="geometry" />
        </mxCell>
        <mxCell id="-ttaNwEr5wL1qXrof5S8-241" value="" style="shape=step;perimeter=stepPerimeter;whiteSpace=wrap;html=1;fixedSize=1;rotation=-180;" vertex="1" parent="1">
          <mxGeometry x="460" y="-890" width="200" height="130" as="geometry" />
        </mxCell>
        <mxCell id="-ttaNwEr5wL1qXrof5S8-242" value="&lt;b&gt;&lt;font style=&quot;font-size: 18px;&quot;&gt;Прямая единоразовая выгрузка&lt;/font&gt;&lt;/b&gt;" style="text;html=1;align=center;verticalAlign=middle;whiteSpace=wrap;rounded=0;" vertex="1" parent="1">
          <mxGeometry x="470" y="-880" width="170" height="100" as="geometry" />
        </mxCell>
        <mxCell id="-ttaNwEr5wL1qXrof5S8-248" value="&lt;h1 style=&quot;margin-top: 0px;&quot;&gt;STAGING&lt;/h1&gt;" style="text;html=1;whiteSpace=wrap;overflow=hidden;rounded=0;" vertex="1" parent="1">
          <mxGeometry x="740" y="-1210" width="120" height="40" as="geometry" />
        </mxCell>
      </root>
    </mxGraphModel>
  </diagram>
  <diagram id="Q8BE1aW65V3LsU3hSjd4" name="Алгоритм описания блоков">
    <mxGraphModel dx="1474" dy="1235" grid="0" gridSize="10" guides="1" tooltips="1" connect="1" arrows="1" fold="1" page="0" pageScale="1" pageWidth="827" pageHeight="1169" math="0" shadow="0">
      <root>
        <mxCell id="0" />
        <mxCell id="1" parent="0" />
        <mxCell id="IjhR-TzFUBGvVygihcxK-1" style="edgeStyle=elbowEdgeStyle;rounded=0;orthogonalLoop=1;jettySize=auto;elbow=vertical;html=1;exitX=1;exitY=0.5;exitDx=0;exitDy=0;entryX=0;entryY=0.5;entryDx=0;entryDy=0;" edge="1" parent="1" source="ObZ3WurN0Z1yXaBjCuNW-16" target="ObZ3WurN0Z1yXaBjCuNW-18">
          <mxGeometry relative="1" as="geometry" />
        </mxCell>
        <mxCell id="ObZ3WurN0Z1yXaBjCuNW-16" value="Аналитический блок" style="rounded=1;whiteSpace=wrap;html=1;" vertex="1" parent="1">
          <mxGeometry x="-218" y="-192" width="120" height="60" as="geometry" />
        </mxCell>
        <mxCell id="IjhR-TzFUBGvVygihcxK-2" style="edgeStyle=elbowEdgeStyle;rounded=0;orthogonalLoop=1;jettySize=auto;elbow=vertical;html=1;exitX=1;exitY=0.5;exitDx=0;exitDy=0;" edge="1" parent="1" source="ObZ3WurN0Z1yXaBjCuNW-18" target="ObZ3WurN0Z1yXaBjCuNW-20">
          <mxGeometry relative="1" as="geometry" />
        </mxCell>
        <mxCell id="ObZ3WurN0Z1yXaBjCuNW-18" value="Компонент" style="rounded=1;whiteSpace=wrap;html=1;" vertex="1" parent="1">
          <mxGeometry x="-81" y="-192" width="120" height="60" as="geometry" />
        </mxCell>
        <mxCell id="ObZ3WurN0Z1yXaBjCuNW-19" value="ФВД" style="rounded=1;whiteSpace=wrap;html=1;" vertex="1" parent="1">
          <mxGeometry x="-220" y="-283" width="120" height="60" as="geometry" />
        </mxCell>
        <mxCell id="IjhR-TzFUBGvVygihcxK-3" value="" style="edgeStyle=elbowEdgeStyle;rounded=0;orthogonalLoop=1;jettySize=auto;elbow=vertical;html=1;" edge="1" parent="1" source="ObZ3WurN0Z1yXaBjCuNW-20" target="ObZ3WurN0Z1yXaBjCuNW-21">
          <mxGeometry relative="1" as="geometry" />
        </mxCell>
        <mxCell id="ObZ3WurN0Z1yXaBjCuNW-20" value="Наборы данных" style="rounded=1;whiteSpace=wrap;html=1;" vertex="1" parent="1">
          <mxGeometry x="57" y="-192" width="120" height="60" as="geometry" />
        </mxCell>
        <mxCell id="IjhR-TzFUBGvVygihcxK-8" style="edgeStyle=elbowEdgeStyle;rounded=0;orthogonalLoop=1;jettySize=auto;elbow=vertical;html=1;exitX=1;exitY=0.5;exitDx=0;exitDy=0;" edge="1" parent="1" source="ObZ3WurN0Z1yXaBjCuNW-21" target="ObZ3WurN0Z1yXaBjCuNW-23">
          <mxGeometry relative="1" as="geometry" />
        </mxCell>
        <mxCell id="ObZ3WurN0Z1yXaBjCuNW-21" value="Используемые таблицы" style="rounded=1;whiteSpace=wrap;html=1;" vertex="1" parent="1">
          <mxGeometry x="195" y="-192" width="107" height="60" as="geometry" />
        </mxCell>
        <mxCell id="IjhR-TzFUBGvVygihcxK-10" style="edgeStyle=elbowEdgeStyle;rounded=0;orthogonalLoop=1;jettySize=auto;elbow=vertical;html=1;exitX=1;exitY=0.5;exitDx=0;exitDy=0;" edge="1" parent="1" source="ObZ3WurN0Z1yXaBjCuNW-23" target="ObZ3WurN0Z1yXaBjCuNW-25">
          <mxGeometry relative="1" as="geometry" />
        </mxCell>
        <mxCell id="ObZ3WurN0Z1yXaBjCuNW-23" value="Сценаирий" style="rounded=1;whiteSpace=wrap;html=1;" vertex="1" parent="1">
          <mxGeometry x="333" y="-192" width="120" height="60" as="geometry" />
        </mxCell>
        <mxCell id="ObZ3WurN0Z1yXaBjCuNW-24" value="Шаги сценария" style="rounded=1;whiteSpace=wrap;html=1;" vertex="1" parent="1">
          <mxGeometry x="-215" y="-108" width="120" height="60" as="geometry" />
        </mxCell>
        <mxCell id="IjhR-TzFUBGvVygihcxK-9" style="edgeStyle=elbowEdgeStyle;rounded=0;orthogonalLoop=1;jettySize=auto;elbow=vertical;html=1;" edge="1" parent="1" source="ObZ3WurN0Z1yXaBjCuNW-25">
          <mxGeometry relative="1" as="geometry">
            <mxPoint x="478.49994913736987" y="-162" as="targetPoint" />
          </mxGeometry>
        </mxCell>
        <mxCell id="ObZ3WurN0Z1yXaBjCuNW-25" value="Используемые таблицы в сценарии" style="rounded=1;whiteSpace=wrap;html=1;" vertex="1" parent="1">
          <mxGeometry x="479" y="-192" width="120" height="60" as="geometry" />
        </mxCell>
        <mxCell id="jQWvtI5oz2lotlRxDtGK-4" value="Цветовая индикация таблиц" style="text;html=1;align=center;verticalAlign=middle;whiteSpace=wrap;rounded=0;fontStyle=1" vertex="1" parent="1">
          <mxGeometry x="-239" y="-438" width="251" height="30" as="geometry" />
        </mxCell>
        <mxCell id="AVKf-7-BTxJbi-1Ssqvt-1" value="Таблица ядра" style="rounded=0;whiteSpace=wrap;html=1;labelBackgroundColor=none;fillColor=#dae8fc;strokeColor=#6c8ebf;" vertex="1" parent="1">
          <mxGeometry x="-220" y="-387" width="130" height="28" as="geometry" />
        </mxCell>
        <mxCell id="AVKf-7-BTxJbi-1Ssqvt-2" value="Витрина" style="rounded=0;whiteSpace=wrap;html=1;fillColor=#d5e8d4;strokeColor=#82b366;" vertex="1" parent="1">
          <mxGeometry x="-78" y="-387" width="130" height="28" as="geometry" />
        </mxCell>
        <mxCell id="AVKf-7-BTxJbi-1Ssqvt-3" value="Таблица Фильтра" style="rounded=0;whiteSpace=wrap;html=1;fillColor=#ffe6cc;strokeColor=#d79b00;" vertex="1" parent="1">
          <mxGeometry x="64" y="-387" width="130" height="28" as="geometry" />
        </mxCell>
        <mxCell id="AVKf-7-BTxJbi-1Ssqvt-4" value="Таблица ФВД" style="rounded=0;whiteSpace=wrap;html=1;fillColor=#e1d5e7;strokeColor=#9673a6;" vertex="1" parent="1">
          <mxGeometry x="206" y="-387" width="130" height="28" as="geometry" />
        </mxCell>
        <mxCell id="AVKf-7-BTxJbi-1Ssqvt-5" value="Вспомогательная таблица" style="rounded=0;whiteSpace=wrap;html=1;fillColor=#fad9d5;strokeColor=#ae4132;" vertex="1" parent="1">
          <mxGeometry x="348" y="-387" width="130" height="28" as="geometry" />
        </mxCell>
        <mxCell id="AVKf-7-BTxJbi-1Ssqvt-6" value="Временная таблица" style="rounded=0;whiteSpace=wrap;html=1;fillColor=#f5f5f5;strokeColor=#666666;fontColor=#333333;" vertex="1" parent="1">
          <mxGeometry x="490" y="-387" width="130" height="28" as="geometry" />
        </mxCell>
      </root>
    </mxGraphModel>
  </diagram>
  <diagram id="6p_OgrAISTzD7kHdGaXG" name="Блок Атлас">
    <mxGraphModel dx="2089" dy="922" grid="0" gridSize="10" guides="1" tooltips="1" connect="1" arrows="1" fold="1" page="0" pageScale="1" pageWidth="827" pageHeight="1169" math="0" shadow="0">
      <root>
        <mxCell id="0" />
        <mxCell id="1" parent="0" />
        <mxCell id="JQHpWjY89Pe-y4Qi9-8J-53" value="&lt;font style=&quot;font-size: 11px;&quot;&gt;Атлас + Вспомогательные&lt;/font&gt;" style="swimlane;html=1;childLayout=stackLayout;horizontal=1;startSize=20;horizontalStack=0;rounded=0;shadow=0;labelBackgroundColor=none;strokeWidth=1;fontFamily=Verdana;fontSize=8;align=center;" vertex="1" parent="1">
          <mxGeometry x="-550" y="-114" width="1244" height="770" as="geometry">
            <mxRectangle x="-550" y="-114" width="185" height="26" as="alternateBounds" />
          </mxGeometry>
        </mxCell>
        <mxCell id="JQHpWjY89Pe-y4Qi9-8J-54" value="Компоненты" style="swimlane;html=1;startSize=20;horizontal=0;" vertex="1" parent="JQHpWjY89Pe-y4Qi9-8J-53">
          <mxGeometry y="20" width="1244" height="150" as="geometry" />
        </mxCell>
        <mxCell id="JQHpWjY89Pe-y4Qi9-8J-84" value="К 8 lite" style="rounded=1;whiteSpace=wrap;html=1;fontStyle=1;" vertex="1" parent="JQHpWjY89Pe-y4Qi9-8J-54">
          <mxGeometry x="46" y="40" width="120" height="60" as="geometry" />
        </mxCell>
        <mxCell id="JQHpWjY89Pe-y4Qi9-8J-85" value="К 9 lite" style="rounded=1;whiteSpace=wrap;html=1;fontStyle=1" vertex="1" parent="JQHpWjY89Pe-y4Qi9-8J-54">
          <mxGeometry x="492" y="40" width="120" height="60" as="geometry" />
        </mxCell>
        <mxCell id="JQHpWjY89Pe-y4Qi9-8J-86" value="К 8.1&amp;nbsp;" style="rounded=1;whiteSpace=wrap;html=1;" vertex="1" parent="JQHpWjY89Pe-y4Qi9-8J-54">
          <mxGeometry x="206" y="40" width="120" height="60" as="geometry" />
        </mxCell>
        <mxCell id="JQHpWjY89Pe-y4Qi9-8J-87" value="К 9.1&amp;nbsp;" style="rounded=1;whiteSpace=wrap;html=1;" vertex="1" parent="JQHpWjY89Pe-y4Qi9-8J-54">
          <mxGeometry x="656" y="40" width="120" height="60" as="geometry" />
        </mxCell>
        <mxCell id="JQHpWjY89Pe-y4Qi9-8J-66" value="Наборы данных" style="swimlane;html=1;startSize=20;horizontal=0;" vertex="1" parent="JQHpWjY89Pe-y4Qi9-8J-53">
          <mxGeometry y="170" width="1244" height="150" as="geometry" />
        </mxCell>
        <mxCell id="RFMOcXtj-jcgpu-l6LXl-6" value="&lt;div&gt;08 lite Поставки на площадки (2 года)&lt;/div&gt;" style="rounded=1;whiteSpace=wrap;html=1;fontStyle=1" vertex="1" parent="JQHpWjY89Pe-y4Qi9-8J-66">
          <mxGeometry x="46" y="42" width="120" height="60" as="geometry" />
        </mxCell>
        <mxCell id="RFMOcXtj-jcgpu-l6LXl-7" value="&lt;span style=&quot;color: rgb(51, 51, 51); font-family: Arial, Verdana, &amp;quot;Helvetica CY&amp;quot;, &amp;quot;Geneva CY&amp;quot;, sans-serif; font-size: 12.6px; text-align: left;&quot;&gt;09 lite Отгрузки с площадки (2 года)&lt;/span&gt;" style="rounded=1;whiteSpace=wrap;html=1;fontStyle=1" vertex="1" parent="JQHpWjY89Pe-y4Qi9-8J-66">
          <mxGeometry x="185" y="41.5" width="120" height="60" as="geometry" />
        </mxCell>
        <mxCell id="_RwUSOlKGT2mNY37z1M0-33" style="edgeStyle=elbowEdgeStyle;rounded=0;orthogonalLoop=1;jettySize=auto;elbow=vertical;html=1;exitX=0.5;exitY=0;exitDx=0;exitDy=0;entryX=0.5;entryY=0;entryDx=0;entryDy=0;" edge="1" parent="JQHpWjY89Pe-y4Qi9-8J-66" source="RFMOcXtj-jcgpu-l6LXl-8" target="JQHpWjY89Pe-y4Qi9-8J-66">
          <mxGeometry relative="1" as="geometry" />
        </mxCell>
        <mxCell id="RFMOcXtj-jcgpu-l6LXl-8" value="&lt;span style=&quot;color: rgb(51, 51, 51); font-family: Arial, Verdana, &amp;quot;Helvetica CY&amp;quot;, &amp;quot;Geneva CY&amp;quot;, sans-serif; font-size: 12.6px; text-align: left;&quot;&gt;K08-09_F_agr_consignee-or_ent-be&lt;/span&gt;" style="rounded=1;whiteSpace=wrap;html=1;" vertex="1" parent="JQHpWjY89Pe-y4Qi9-8J-66">
          <mxGeometry x="330" y="39" width="152" height="65" as="geometry" />
        </mxCell>
        <mxCell id="_RwUSOlKGT2mNY37z1M0-36" style="edgeStyle=elbowEdgeStyle;rounded=0;orthogonalLoop=1;jettySize=auto;elbow=vertical;html=1;exitX=0.5;exitY=0;exitDx=0;exitDy=0;entryX=0.5;entryY=0;entryDx=0;entryDy=0;" edge="1" parent="JQHpWjY89Pe-y4Qi9-8J-66" source="RFMOcXtj-jcgpu-l6LXl-9" target="JQHpWjY89Pe-y4Qi9-8J-66">
          <mxGeometry relative="1" as="geometry" />
        </mxCell>
        <mxCell id="RFMOcXtj-jcgpu-l6LXl-9" value="&lt;span style=&quot;color: rgb(51, 51, 51); font-family: Arial, Verdana, &amp;quot;Helvetica CY&amp;quot;, &amp;quot;Geneva CY&amp;quot;, sans-serif; font-size: 12.6px; text-align: left;&quot;&gt;K8___F_certificate_status&lt;/span&gt;" style="rounded=1;whiteSpace=wrap;html=1;" vertex="1" parent="JQHpWjY89Pe-y4Qi9-8J-66">
          <mxGeometry x="504" y="39" width="159" height="66" as="geometry" />
        </mxCell>
        <mxCell id="_RwUSOlKGT2mNY37z1M0-35" style="edgeStyle=elbowEdgeStyle;rounded=0;orthogonalLoop=1;jettySize=auto;elbow=vertical;html=1;exitX=0.5;exitY=0;exitDx=0;exitDy=0;entryX=0.5;entryY=0;entryDx=0;entryDy=0;" edge="1" parent="JQHpWjY89Pe-y4Qi9-8J-66" source="RFMOcXtj-jcgpu-l6LXl-10" target="JQHpWjY89Pe-y4Qi9-8J-66">
          <mxGeometry relative="1" as="geometry" />
        </mxCell>
        <mxCell id="RFMOcXtj-jcgpu-l6LXl-10" value="&lt;span style=&quot;color: rgb(51, 51, 51); font-family: Arial, Verdana, &amp;quot;Helvetica CY&amp;quot;, &amp;quot;Geneva CY&amp;quot;, sans-serif; font-size: 12.6px; text-align: left;&quot;&gt;К8_9 Source Фильтр Сертификаты поступления на площадку&lt;/span&gt;" style="rounded=1;whiteSpace=wrap;html=1;" vertex="1" parent="JQHpWjY89Pe-y4Qi9-8J-66">
          <mxGeometry x="683" y="39" width="157" height="67" as="geometry" />
        </mxCell>
        <mxCell id="_RwUSOlKGT2mNY37z1M0-37" style="edgeStyle=elbowEdgeStyle;rounded=0;orthogonalLoop=1;jettySize=auto;elbow=vertical;html=1;exitX=0.5;exitY=0;exitDx=0;exitDy=0;entryX=0.5;entryY=0;entryDx=0;entryDy=0;" edge="1" parent="JQHpWjY89Pe-y4Qi9-8J-66" source="RFMOcXtj-jcgpu-l6LXl-11" target="JQHpWjY89Pe-y4Qi9-8J-66">
          <mxGeometry relative="1" as="geometry" />
        </mxCell>
        <mxCell id="RFMOcXtj-jcgpu-l6LXl-11" value="&lt;span style=&quot;color: rgb(51, 51, 51); font-family: Arial, Verdana, &amp;quot;Helvetica CY&amp;quot;, &amp;quot;Geneva CY&amp;quot;, sans-serif; font-size: 12.6px; text-align: left;&quot;&gt;К8_9 Кто оформил Фильтр Сертификаты поступления на площадку&lt;/span&gt;" style="rounded=1;whiteSpace=wrap;html=1;" vertex="1" parent="JQHpWjY89Pe-y4Qi9-8J-66">
          <mxGeometry x="858" y="39" width="153" height="67" as="geometry" />
        </mxCell>
        <mxCell id="_RwUSOlKGT2mNY37z1M0-38" style="edgeStyle=elbowEdgeStyle;rounded=0;orthogonalLoop=1;jettySize=auto;elbow=vertical;html=1;exitX=0.5;exitY=0;exitDx=0;exitDy=0;entryX=0.5;entryY=0;entryDx=0;entryDy=0;" edge="1" parent="JQHpWjY89Pe-y4Qi9-8J-66" source="RFMOcXtj-jcgpu-l6LXl-12" target="JQHpWjY89Pe-y4Qi9-8J-66">
          <mxGeometry relative="1" as="geometry" />
        </mxCell>
        <mxCell id="RFMOcXtj-jcgpu-l6LXl-12" value="&lt;span style=&quot;color: rgb(51, 51, 51); font-family: Arial, Verdana, &amp;quot;Helvetica CY&amp;quot;, &amp;quot;Geneva CY&amp;quot;, sans-serif; font-size: 12.6px; text-align: left;&quot;&gt;К8_9 ПТ Фильтр Сертификаты поступления на площадку&lt;/span&gt;" style="rounded=1;whiteSpace=wrap;html=1;" vertex="1" parent="JQHpWjY89Pe-y4Qi9-8J-66">
          <mxGeometry x="1037" y="39" width="142" height="66" as="geometry" />
        </mxCell>
        <mxCell id="hg912FfM6FEqGGIqlRZi-7" value="Таблицы из наборов" style="swimlane;html=1;startSize=20;horizontal=0;" vertex="1" parent="JQHpWjY89Pe-y4Qi9-8J-53">
          <mxGeometry y="320" width="1244" height="150" as="geometry">
            <mxRectangle y="320" width="1244" height="26" as="alternateBounds" />
          </mxGeometry>
        </mxCell>
        <mxCell id="hg912FfM6FEqGGIqlRZi-8" value="&lt;span style=&quot;color: rgb(51, 51, 51); font-family: Arial, Verdana, &amp;quot;Helvetica CY&amp;quot;, &amp;quot;Geneva CY&amp;quot;, sans-serif; font-size: 12.6px; text-align: left;&quot;&gt;proj_certificate_product_b1&lt;/span&gt;" style="rounded=0;whiteSpace=wrap;html=1;fillColor=#ffe6cc;strokeColor=#d79b00;" vertex="1" parent="hg912FfM6FEqGGIqlRZi-7">
          <mxGeometry x="1024.5" y="77" width="167" height="33" as="geometry" />
        </mxCell>
        <mxCell id="hg912FfM6FEqGGIqlRZi-9" value="&lt;span style=&quot;color: rgb(51, 51, 51); font-family: Arial, Verdana, &amp;quot;Helvetica CY&amp;quot;, &amp;quot;Geneva CY&amp;quot;, sans-serif; font-size: 12.6px; text-align: left;&quot;&gt;former&lt;/span&gt;" style="rounded=0;whiteSpace=wrap;html=1;fillColor=#dae8fc;strokeColor=#6c8ebf;" vertex="1" parent="hg912FfM6FEqGGIqlRZi-7">
          <mxGeometry x="885" y="75" width="99" height="35" as="geometry" />
        </mxCell>
        <mxCell id="hg912FfM6FEqGGIqlRZi-10" value="&lt;span style=&quot;color: rgb(51, 51, 51); font-family: Arial, Verdana, &amp;quot;Helvetica CY&amp;quot;, &amp;quot;Geneva CY&amp;quot;, sans-serif; font-size: 12.6px; text-align: left;&quot;&gt;k0809lite_new&amp;nbsp;&lt;/span&gt;" style="rounded=0;whiteSpace=wrap;html=1;fillColor=#d5e8d4;strokeColor=#82b366;" vertex="1" parent="hg912FfM6FEqGGIqlRZi-7">
          <mxGeometry x="68" y="64" width="170" height="33" as="geometry" />
        </mxCell>
        <mxCell id="hg912FfM6FEqGGIqlRZi-11" value="&lt;span style=&quot;color: rgb(51, 51, 51); font-family: Arial, Verdana, &amp;quot;Helvetica CY&amp;quot;, &amp;quot;Geneva CY&amp;quot;, sans-serif; font-size: 12.6px; text-align: left;&quot;&gt;k0809lite_ent_be_filter&amp;nbsp;&lt;/span&gt;" style="rounded=0;whiteSpace=wrap;html=1;fillColor=#ffe6cc;strokeColor=#d79b00;" vertex="1" parent="hg912FfM6FEqGGIqlRZi-7">
          <mxGeometry x="279" y="64" width="162" height="35" as="geometry" />
        </mxCell>
        <mxCell id="hg912FfM6FEqGGIqlRZi-12" value="&lt;span style=&quot;color: rgb(51, 51, 51); font-family: Arial, Verdana, &amp;quot;Helvetica CY&amp;quot;, &amp;quot;Geneva CY&amp;quot;, sans-serif; font-size: 12.6px; text-align: left;&quot;&gt;certificate_status&lt;/span&gt;" style="rounded=0;whiteSpace=wrap;html=1;fillColor=#dae8fc;strokeColor=#6c8ebf;" vertex="1" parent="hg912FfM6FEqGGIqlRZi-7">
          <mxGeometry x="500" y="69" width="150" height="33" as="geometry" />
        </mxCell>
        <mxCell id="hg912FfM6FEqGGIqlRZi-13" value="&lt;span style=&quot;color: rgb(51, 51, 51); font-family: Arial, Verdana, &amp;quot;Helvetica CY&amp;quot;, &amp;quot;Geneva CY&amp;quot;, sans-serif; font-size: 12.6px; text-align: left;&quot;&gt;certificate_source&lt;/span&gt;" style="rounded=0;whiteSpace=wrap;html=1;fillColor=#dae8fc;strokeColor=#6c8ebf;" vertex="1" parent="hg912FfM6FEqGGIqlRZi-7">
          <mxGeometry x="684" y="73" width="155" height="37" as="geometry" />
        </mxCell>
        <mxCell id="JQHpWjY89Pe-y4Qi9-8J-82" value="No" style="edgeStyle=orthogonalEdgeStyle;rounded=0;html=1;labelBackgroundColor=none;startArrow=none;startFill=0;startSize=5;endArrow=classicThin;endFill=1;endSize=5;jettySize=auto;orthogonalLoop=1;strokeWidth=1;fontFamily=Verdana;fontSize=8" edge="1" parent="JQHpWjY89Pe-y4Qi9-8J-53" source="JQHpWjY89Pe-y4Qi9-8J-74">
          <mxGeometry x="-0.9529" y="15" relative="1" as="geometry">
            <Array as="points">
              <mxPoint x="345" y="440" />
              <mxPoint x="155" y="440" />
            </Array>
            <mxPoint as="offset" />
            <mxPoint x="155" y="257" as="targetPoint" />
          </mxGeometry>
        </mxCell>
        <mxCell id="guxUwIolKlm5pZX6rSjd-1" value="Сценарии" style="swimlane;html=1;startSize=20;horizontal=0;" vertex="1" parent="JQHpWjY89Pe-y4Qi9-8J-53">
          <mxGeometry y="470" width="1244" height="150" as="geometry" />
        </mxCell>
        <mxCell id="guxUwIolKlm5pZX6rSjd-2" value="K_8_9_LITE_INKREMENT" style="shape=hexagon;perimeter=hexagonPerimeter2;whiteSpace=wrap;html=1;fixedSize=1;" vertex="1" parent="guxUwIolKlm5pZX6rSjd-1">
          <mxGeometry x="517" y="39" width="179" height="80" as="geometry" />
        </mxCell>
        <mxCell id="_RwUSOlKGT2mNY37z1M0-10" value="Проекция на таблицу product_name" style="shape=parallelogram;perimeter=parallelogramPerimeter;whiteSpace=wrap;html=1;fixedSize=1;" vertex="1" parent="guxUwIolKlm5pZX6rSjd-1">
          <mxGeometry x="987" y="39" width="120" height="60" as="geometry" />
        </mxCell>
        <mxCell id="_RwUSOlKGT2mNY37z1M0-17" style="edgeStyle=elbowEdgeStyle;rounded=0;orthogonalLoop=1;jettySize=auto;elbow=vertical;html=1;exitX=0.5;exitY=0;exitDx=0;exitDy=0;" edge="1" parent="JQHpWjY89Pe-y4Qi9-8J-53" source="JQHpWjY89Pe-y4Qi9-8J-70" target="guxUwIolKlm5pZX6rSjd-2">
          <mxGeometry relative="1" as="geometry" />
        </mxCell>
        <mxCell id="JQHpWjY89Pe-y4Qi9-8J-70" value="Таблицы сценария" style="swimlane;html=1;startSize=20;horizontal=0;" vertex="1" parent="JQHpWjY89Pe-y4Qi9-8J-53">
          <mxGeometry y="620" width="1244" height="150" as="geometry">
            <mxRectangle y="620" width="1244" height="26" as="alternateBounds" />
          </mxGeometry>
        </mxCell>
        <mxCell id="guxUwIolKlm5pZX6rSjd-4" value="k0809_producer" style="rounded=0;whiteSpace=wrap;html=1;fillColor=#fad9d5;strokeColor=#ae4132;" vertex="1" parent="JQHpWjY89Pe-y4Qi9-8J-70">
          <mxGeometry x="52" y="66" width="130" height="28" as="geometry" />
        </mxCell>
        <mxCell id="eS4dShGHWixi8SMgv67B-2" value="original_producer_id" style="rounded=0;whiteSpace=wrap;html=1;labelBackgroundColor=none;fillColor=#dae8fc;strokeColor=#6c8ebf;" vertex="1" parent="JQHpWjY89Pe-y4Qi9-8J-70">
          <mxGeometry x="741" y="30" width="130" height="28" as="geometry" />
        </mxCell>
        <mxCell id="eS4dShGHWixi8SMgv67B-3" value="enterprise" style="rounded=0;whiteSpace=wrap;html=1;labelBackgroundColor=none;fillColor=#dae8fc;strokeColor=#6c8ebf;" vertex="1" parent="JQHpWjY89Pe-y4Qi9-8J-70">
          <mxGeometry x="741" y="68.5" width="130" height="28" as="geometry" />
        </mxCell>
        <mxCell id="eS4dShGHWixi8SMgv67B-4" value="k0809lite_increment" style="rounded=0;whiteSpace=wrap;html=1;fillColor=#fad9d5;strokeColor=#ae4132;" vertex="1" parent="JQHpWjY89Pe-y4Qi9-8J-70">
          <mxGeometry x="52" y="105" width="130" height="28" as="geometry" />
        </mxCell>
        <mxCell id="eS4dShGHWixi8SMgv67B-5" value="k0809_producer_main" style="rounded=0;whiteSpace=wrap;html=1;fillColor=#fad9d5;strokeColor=#ae4132;" vertex="1" parent="JQHpWjY89Pe-y4Qi9-8J-70">
          <mxGeometry x="55" y="27" width="130" height="28" as="geometry" />
        </mxCell>
        <mxCell id="eS4dShGHWixi8SMgv67B-6" value="certificate" style="rounded=0;whiteSpace=wrap;html=1;labelBackgroundColor=none;fillColor=#dae8fc;strokeColor=#6c8ebf;" vertex="1" parent="JQHpWjY89Pe-y4Qi9-8J-70">
          <mxGeometry x="234" y="110" width="130" height="28" as="geometry" />
        </mxCell>
        <mxCell id="eS4dShGHWixi8SMgv67B-8" value="certificate_type" style="rounded=0;whiteSpace=wrap;html=1;labelBackgroundColor=none;fillColor=#dae8fc;strokeColor=#6c8ebf;" vertex="1" parent="JQHpWjY89Pe-y4Qi9-8J-70">
          <mxGeometry x="412" y="30" width="130" height="28" as="geometry" />
        </mxCell>
        <mxCell id="eS4dShGHWixi8SMgv67B-13" value="product_type" style="rounded=0;whiteSpace=wrap;html=1;labelBackgroundColor=none;fillColor=#dae8fc;strokeColor=#6c8ebf;" vertex="1" parent="JQHpWjY89Pe-y4Qi9-8J-70">
          <mxGeometry x="578" y="27" width="130" height="28" as="geometry" />
        </mxCell>
        <mxCell id="eS4dShGHWixi8SMgv67B-12" value="product" style="rounded=0;whiteSpace=wrap;html=1;labelBackgroundColor=none;fillColor=#dae8fc;strokeColor=#6c8ebf;" vertex="1" parent="JQHpWjY89Pe-y4Qi9-8J-70">
          <mxGeometry x="578" y="66" width="130" height="28" as="geometry" />
        </mxCell>
        <mxCell id="eS4dShGHWixi8SMgv67B-11" value="sub_product" style="rounded=0;whiteSpace=wrap;html=1;labelBackgroundColor=none;fillColor=#dae8fc;strokeColor=#6c8ebf;" vertex="1" parent="JQHpWjY89Pe-y4Qi9-8J-70">
          <mxGeometry x="578" y="105" width="130" height="28" as="geometry" />
        </mxCell>
        <mxCell id="eS4dShGHWixi8SMgv67B-10" value="product_name" style="rounded=0;whiteSpace=wrap;html=1;labelBackgroundColor=none;fillColor=#dae8fc;strokeColor=#6c8ebf;" vertex="1" parent="JQHpWjY89Pe-y4Qi9-8J-70">
          <mxGeometry x="415" y="110" width="130" height="28" as="geometry" />
        </mxCell>
        <mxCell id="eS4dShGHWixi8SMgv67B-9" value="business_entity" style="rounded=0;whiteSpace=wrap;html=1;labelBackgroundColor=none;fillColor=#dae8fc;strokeColor=#6c8ebf;" vertex="1" parent="JQHpWjY89Pe-y4Qi9-8J-70">
          <mxGeometry x="415" y="72" width="130" height="28" as="geometry" />
        </mxCell>
        <mxCell id="eS4dShGHWixi8SMgv67B-16" value="certificate_source" style="rounded=0;whiteSpace=wrap;html=1;labelBackgroundColor=none;fillColor=#dae8fc;strokeColor=#6c8ebf;" vertex="1" parent="JQHpWjY89Pe-y4Qi9-8J-70">
          <mxGeometry x="741" y="105" width="130" height="28" as="geometry" />
        </mxCell>
        <mxCell id="eS4dShGHWixi8SMgv67B-17" value="geo_lvl1" style="rounded=0;whiteSpace=wrap;html=1;labelBackgroundColor=none;fillColor=#dae8fc;strokeColor=#6c8ebf;" vertex="1" parent="JQHpWjY89Pe-y4Qi9-8J-70">
          <mxGeometry x="906" y="27" width="130" height="28" as="geometry" />
        </mxCell>
        <mxCell id="eS4dShGHWixi8SMgv67B-18" value="geo_lvl2" style="rounded=0;whiteSpace=wrap;html=1;labelBackgroundColor=none;fillColor=#dae8fc;strokeColor=#6c8ebf;" vertex="1" parent="JQHpWjY89Pe-y4Qi9-8J-70">
          <mxGeometry x="906" y="66" width="130" height="28" as="geometry" />
        </mxCell>
        <mxCell id="eS4dShGHWixi8SMgv67B-19" value="geo_other_lvls" style="rounded=0;whiteSpace=wrap;html=1;labelBackgroundColor=none;fillColor=#dae8fc;strokeColor=#6c8ebf;" vertex="1" parent="JQHpWjY89Pe-y4Qi9-8J-70">
          <mxGeometry x="906" y="105" width="130" height="28" as="geometry" />
        </mxCell>
        <mxCell id="eS4dShGHWixi8SMgv67B-20" value="k0809lite_ent_be_filter" style="rounded=0;whiteSpace=wrap;html=1;fillColor=#ffe6cc;strokeColor=#d79b00;" vertex="1" parent="JQHpWjY89Pe-y4Qi9-8J-70">
          <mxGeometry x="1071" y="23" width="140" height="29" as="geometry" />
        </mxCell>
        <mxCell id="eS4dShGHWixi8SMgv67B-21" value="&lt;span style=&quot;color: rgb(51, 51, 51); font-family: Arial, Verdana, &amp;quot;Helvetica CY&amp;quot;, &amp;quot;Geneva CY&amp;quot;, sans-serif; font-size: 12.6px; text-align: left;&quot;&gt;k0809lite_new&amp;nbsp;&lt;/span&gt;" style="rounded=0;whiteSpace=wrap;html=1;fillColor=#d5e8d4;strokeColor=#82b366;" vertex="1" parent="JQHpWjY89Pe-y4Qi9-8J-70">
          <mxGeometry x="1071" y="66" width="138" height="33" as="geometry" />
        </mxCell>
        <mxCell id="eS4dShGHWixi8SMgv67B-24" value="data_updates" style="rounded=0;whiteSpace=wrap;html=1;fillColor=#fad9d5;strokeColor=#ae4132;" vertex="1" parent="JQHpWjY89Pe-y4Qi9-8J-70">
          <mxGeometry x="1075" y="110" width="130" height="28" as="geometry" />
        </mxCell>
        <mxCell id="eS4dShGHWixi8SMgv67B-14" value="ent_full_data" style="rounded=0;whiteSpace=wrap;html=1;fillColor=#fad9d5;strokeColor=#ae4132;" vertex="1" parent="JQHpWjY89Pe-y4Qi9-8J-70">
          <mxGeometry x="234" y="30" width="130" height="28" as="geometry" />
        </mxCell>
        <mxCell id="eS4dShGHWixi8SMgv67B-15" value="units_to_kg" style="rounded=0;whiteSpace=wrap;html=1;fillColor=#fad9d5;strokeColor=#ae4132;" vertex="1" parent="JQHpWjY89Pe-y4Qi9-8J-70">
          <mxGeometry x="234" y="71" width="130" height="28" as="geometry" />
        </mxCell>
        <mxCell id="_RwUSOlKGT2mNY37z1M0-15" style="edgeStyle=elbowEdgeStyle;rounded=0;orthogonalLoop=1;jettySize=auto;elbow=vertical;html=1;exitX=0.5;exitY=0;exitDx=0;exitDy=0;" edge="1" parent="JQHpWjY89Pe-y4Qi9-8J-53" source="_RwUSOlKGT2mNY37z1M0-10" target="hg912FfM6FEqGGIqlRZi-8">
          <mxGeometry relative="1" as="geometry" />
        </mxCell>
        <mxCell id="_RwUSOlKGT2mNY37z1M0-18" style="edgeStyle=elbowEdgeStyle;rounded=0;orthogonalLoop=1;jettySize=auto;elbow=vertical;html=1;exitX=0;exitY=0.5;exitDx=0;exitDy=0;entryX=0.5;entryY=1;entryDx=0;entryDy=0;" edge="1" parent="JQHpWjY89Pe-y4Qi9-8J-53" source="guxUwIolKlm5pZX6rSjd-2" target="hg912FfM6FEqGGIqlRZi-11">
          <mxGeometry relative="1" as="geometry" />
        </mxCell>
        <mxCell id="_RwUSOlKGT2mNY37z1M0-19" style="edgeStyle=elbowEdgeStyle;rounded=0;orthogonalLoop=1;jettySize=auto;elbow=vertical;html=1;exitX=0;exitY=0.5;exitDx=0;exitDy=0;entryX=0.5;entryY=1;entryDx=0;entryDy=0;" edge="1" parent="JQHpWjY89Pe-y4Qi9-8J-53" source="guxUwIolKlm5pZX6rSjd-2" target="hg912FfM6FEqGGIqlRZi-10">
          <mxGeometry relative="1" as="geometry" />
        </mxCell>
        <mxCell id="_RwUSOlKGT2mNY37z1M0-20" style="edgeStyle=elbowEdgeStyle;rounded=0;orthogonalLoop=1;jettySize=auto;elbow=vertical;html=1;exitX=0.5;exitY=0;exitDx=0;exitDy=0;entryX=0.563;entryY=0.987;entryDx=0;entryDy=0;entryPerimeter=0;" edge="1" parent="JQHpWjY89Pe-y4Qi9-8J-53" source="hg912FfM6FEqGGIqlRZi-10" target="RFMOcXtj-jcgpu-l6LXl-6">
          <mxGeometry relative="1" as="geometry" />
        </mxCell>
        <mxCell id="_RwUSOlKGT2mNY37z1M0-21" style="edgeStyle=elbowEdgeStyle;rounded=0;orthogonalLoop=1;jettySize=auto;elbow=vertical;html=1;exitX=0.5;exitY=0;exitDx=0;exitDy=0;entryX=0.5;entryY=1;entryDx=0;entryDy=0;" edge="1" parent="JQHpWjY89Pe-y4Qi9-8J-53" source="hg912FfM6FEqGGIqlRZi-11" target="RFMOcXtj-jcgpu-l6LXl-8">
          <mxGeometry relative="1" as="geometry" />
        </mxCell>
        <mxCell id="_RwUSOlKGT2mNY37z1M0-22" style="edgeStyle=elbowEdgeStyle;rounded=0;orthogonalLoop=1;jettySize=auto;elbow=vertical;html=1;exitX=0.5;exitY=0;exitDx=0;exitDy=0;" edge="1" parent="JQHpWjY89Pe-y4Qi9-8J-53" source="hg912FfM6FEqGGIqlRZi-10" target="RFMOcXtj-jcgpu-l6LXl-7">
          <mxGeometry relative="1" as="geometry" />
        </mxCell>
        <mxCell id="_RwUSOlKGT2mNY37z1M0-23" style="edgeStyle=elbowEdgeStyle;rounded=0;orthogonalLoop=1;jettySize=auto;elbow=vertical;html=1;exitX=0.5;exitY=0;exitDx=0;exitDy=0;entryX=0.443;entryY=0.991;entryDx=0;entryDy=0;entryPerimeter=0;" edge="1" parent="JQHpWjY89Pe-y4Qi9-8J-53" source="hg912FfM6FEqGGIqlRZi-12" target="RFMOcXtj-jcgpu-l6LXl-9">
          <mxGeometry relative="1" as="geometry" />
        </mxCell>
        <mxCell id="_RwUSOlKGT2mNY37z1M0-24" style="edgeStyle=elbowEdgeStyle;rounded=0;orthogonalLoop=1;jettySize=auto;elbow=vertical;html=1;exitX=0.5;exitY=0;exitDx=0;exitDy=0;entryX=0.5;entryY=1;entryDx=0;entryDy=0;" edge="1" parent="JQHpWjY89Pe-y4Qi9-8J-53" source="hg912FfM6FEqGGIqlRZi-13" target="RFMOcXtj-jcgpu-l6LXl-10">
          <mxGeometry relative="1" as="geometry" />
        </mxCell>
        <mxCell id="_RwUSOlKGT2mNY37z1M0-25" style="edgeStyle=elbowEdgeStyle;rounded=0;orthogonalLoop=1;jettySize=auto;elbow=vertical;html=1;exitX=0.5;exitY=0;exitDx=0;exitDy=0;" edge="1" parent="JQHpWjY89Pe-y4Qi9-8J-53" source="hg912FfM6FEqGGIqlRZi-9" target="RFMOcXtj-jcgpu-l6LXl-11">
          <mxGeometry relative="1" as="geometry" />
        </mxCell>
        <mxCell id="_RwUSOlKGT2mNY37z1M0-26" style="edgeStyle=elbowEdgeStyle;rounded=0;orthogonalLoop=1;jettySize=auto;elbow=vertical;html=1;exitX=0.5;exitY=0;exitDx=0;exitDy=0;" edge="1" parent="JQHpWjY89Pe-y4Qi9-8J-53" source="hg912FfM6FEqGGIqlRZi-8" target="RFMOcXtj-jcgpu-l6LXl-12">
          <mxGeometry relative="1" as="geometry" />
        </mxCell>
        <mxCell id="_RwUSOlKGT2mNY37z1M0-27" style="edgeStyle=elbowEdgeStyle;rounded=0;orthogonalLoop=1;jettySize=auto;elbow=vertical;html=1;exitX=0.5;exitY=0;exitDx=0;exitDy=0;" edge="1" parent="JQHpWjY89Pe-y4Qi9-8J-53" source="RFMOcXtj-jcgpu-l6LXl-6" target="JQHpWjY89Pe-y4Qi9-8J-84">
          <mxGeometry relative="1" as="geometry" />
        </mxCell>
        <mxCell id="_RwUSOlKGT2mNY37z1M0-28" style="edgeStyle=elbowEdgeStyle;rounded=0;orthogonalLoop=1;jettySize=auto;elbow=vertical;html=1;exitX=0.5;exitY=0;exitDx=0;exitDy=0;" edge="1" parent="JQHpWjY89Pe-y4Qi9-8J-53" source="RFMOcXtj-jcgpu-l6LXl-7" target="JQHpWjY89Pe-y4Qi9-8J-85">
          <mxGeometry relative="1" as="geometry" />
        </mxCell>
        <mxCell id="pWxZGnFB8sU2uudpDNpa-1" style="edgeStyle=elbowEdgeStyle;rounded=0;orthogonalLoop=1;jettySize=auto;elbow=vertical;html=1;exitX=0.5;exitY=0;exitDx=0;exitDy=0;" edge="1" parent="JQHpWjY89Pe-y4Qi9-8J-53" source="RFMOcXtj-jcgpu-l6LXl-7" target="JQHpWjY89Pe-y4Qi9-8J-87">
          <mxGeometry relative="1" as="geometry" />
        </mxCell>
        <mxCell id="pWxZGnFB8sU2uudpDNpa-2" style="edgeStyle=elbowEdgeStyle;rounded=0;orthogonalLoop=1;jettySize=auto;elbow=vertical;html=1;exitX=0.5;exitY=0;exitDx=0;exitDy=0;entryX=0.5;entryY=1;entryDx=0;entryDy=0;" edge="1" parent="JQHpWjY89Pe-y4Qi9-8J-53" source="RFMOcXtj-jcgpu-l6LXl-6" target="JQHpWjY89Pe-y4Qi9-8J-86">
          <mxGeometry relative="1" as="geometry">
            <Array as="points">
              <mxPoint x="192" y="143" />
            </Array>
          </mxGeometry>
        </mxCell>
        <mxCell id="hg912FfM6FEqGGIqlRZi-1" value="Таблица ядра" style="rounded=0;whiteSpace=wrap;html=1;labelBackgroundColor=none;fillColor=#dae8fc;strokeColor=#6c8ebf;" vertex="1" parent="1">
          <mxGeometry x="-498" y="-181" width="130" height="28" as="geometry" />
        </mxCell>
        <mxCell id="hg912FfM6FEqGGIqlRZi-2" value="Витрина" style="rounded=0;whiteSpace=wrap;html=1;fillColor=#d5e8d4;strokeColor=#82b366;" vertex="1" parent="1">
          <mxGeometry x="-356" y="-181" width="130" height="28" as="geometry" />
        </mxCell>
        <mxCell id="hg912FfM6FEqGGIqlRZi-3" value="Таблица Фильтра" style="rounded=0;whiteSpace=wrap;html=1;fillColor=#ffe6cc;strokeColor=#d79b00;" vertex="1" parent="1">
          <mxGeometry x="-214" y="-181" width="130" height="28" as="geometry" />
        </mxCell>
        <mxCell id="hg912FfM6FEqGGIqlRZi-4" value="Цветовая индикация таблиц" style="text;html=1;align=center;verticalAlign=middle;whiteSpace=wrap;rounded=0;fontStyle=1" vertex="1" parent="1">
          <mxGeometry x="-498" y="-231" width="251" height="30" as="geometry" />
        </mxCell>
        <mxCell id="hg912FfM6FEqGGIqlRZi-5" value="Таблица ФВД" style="rounded=0;whiteSpace=wrap;html=1;fillColor=#e1d5e7;strokeColor=#9673a6;" vertex="1" parent="1">
          <mxGeometry x="-72" y="-181" width="130" height="28" as="geometry" />
        </mxCell>
        <mxCell id="hg912FfM6FEqGGIqlRZi-6" value="Вспомогательная таблица" style="rounded=0;whiteSpace=wrap;html=1;fillColor=#fad9d5;strokeColor=#ae4132;" vertex="1" parent="1">
          <mxGeometry x="70" y="-181" width="130" height="28" as="geometry" />
        </mxCell>
        <mxCell id="guxUwIolKlm5pZX6rSjd-3" value="Временная таблица" style="rounded=0;whiteSpace=wrap;html=1;fillColor=#f5f5f5;strokeColor=#666666;fontColor=#333333;" vertex="1" parent="1">
          <mxGeometry x="212" y="-181" width="130" height="28" as="geometry" />
        </mxCell>
      </root>
    </mxGraphModel>
  </diagram>
</mxfile>
